<svg width="13" height="13" viewBox="0 0 13 13" fill="none" xmlns="http://www.w3.org/2000/svg">
<path d="M10.0613 10.301C10.1111 10.3602 10.143 10.4325 10.1531 10.5092C10.1633 10.5859 10.1513 10.664 10.1186 10.7341C10.0859 10.8043 10.0338 10.8637 9.96853 10.9052C9.90323 10.9468 9.82741 10.9688 9.75 10.9688H1.21875C1.14138 10.9687 1.06563 10.9466 1.0004 10.905C0.935165 10.8634 0.883171 10.8041 0.850526 10.7339C0.817882 10.6638 0.805945 10.5858 0.816121 10.5091C0.826296 10.4324 0.85816 10.3602 0.907965 10.301C1.66664 9.39809 2.61015 8.75672 3.65879 8.41344C3.02194 8.01679 2.5316 7.42352 2.26196 6.72338C1.99232 6.02324 1.95804 5.25432 2.16432 4.53297C2.37059 3.81161 2.80619 3.17706 3.40522 2.72532C4.00424 2.27358 4.7341 2.02922 5.48437 2.02922C6.23464 2.02922 6.9645 2.27358 7.56352 2.72532C8.16255 3.17706 8.59815 3.81161 8.80442 4.53297C9.0107 5.25432 8.97642 6.02324 8.70678 6.72338C8.43714 7.42352 7.9468 8.01679 7.30996 8.41344C8.35859 8.75672 9.30211 9.39809 10.0613 10.301ZM9.99679 3.11746C9.9477 3.13839 9.90322 3.16879 9.86588 3.20692C9.82854 3.24504 9.79908 3.29015 9.77918 3.33967C9.75928 3.38918 9.74933 3.44213 9.7499 3.4955C9.75047 3.54886 9.76154 3.60159 9.7825 3.65067C10.0291 4.23055 10.1563 4.85422 10.1563 5.48438C10.1563 6.11453 10.0291 6.73821 9.7825 7.31809C9.74014 7.41721 9.73889 7.5291 9.77903 7.62915C9.81918 7.72919 9.89741 7.80919 9.99654 7.85154C10.0957 7.8939 10.2076 7.89515 10.3076 7.855C10.4076 7.81486 10.4876 7.73663 10.53 7.6375C10.8195 6.95659 10.9687 6.22428 10.9687 5.48438C10.9687 4.74447 10.8195 4.01216 10.53 3.33125C10.4876 3.2322 10.4077 3.15403 10.3077 3.11394C10.2077 3.07385 10.0959 3.07512 9.99679 3.11746ZM12.0204 2.68379C12.0005 2.63323 11.9706 2.58718 11.9326 2.54837C11.8945 2.50956 11.849 2.47879 11.7989 2.45786C11.7487 2.43694 11.6949 2.4263 11.6405 2.42656C11.5862 2.42682 11.5324 2.43799 11.4825 2.4594C11.4325 2.48081 11.3874 2.51203 11.3497 2.55121C11.312 2.59038 11.2826 2.63672 11.2631 2.68747C11.2437 2.73823 11.2346 2.79237 11.2365 2.84669C11.2383 2.90101 11.2511 2.9544 11.2739 3.00371C11.6087 3.7879 11.7812 4.63173 11.7812 5.48438C11.7812 6.33702 11.6087 7.18085 11.2739 7.96504C11.2511 8.01435 11.2383 8.06774 11.2365 8.12206C11.2346 8.17638 11.2437 8.23052 11.2631 8.28128C11.2826 8.33203 11.312 8.37837 11.3497 8.41755C11.3874 8.45672 11.4325 8.48794 11.4825 8.50935C11.5324 8.53076 11.5862 8.54193 11.6405 8.54219C11.6949 8.54246 11.7487 8.53181 11.7989 8.51089C11.849 8.48996 11.8945 8.45919 11.9326 8.42038C11.9706 8.38157 12.0005 8.33553 12.0204 8.28496C12.3987 7.39974 12.5938 6.44705 12.5938 5.48438C12.5938 4.52171 12.3987 3.56901 12.0204 2.68379Z" fill="#4D4EBA"/>
</svg>
