<svg width="100" height="17" viewBox="0 0 100 17" fill="none" xmlns="http://www.w3.org/2000/svg">
<g clip-path="url(#clip0_60_1881)">
<path d="M9.61583 0H0V17H9.61583C15.7492 17 19.7108 13.6638 19.7108 8.50164C19.7108 3.33952 15.7483 0 9.61583 0ZM9.40417 13.631H4.22917V3.37066H9.40417C12.82 3.37066 15.025 5.38503 15.025 8.5C15.025 11.615 12.82 13.6293 9.40417 13.6293V13.631Z" fill="#A19F9E"/>
<path d="M37.44 11.4978C39.71 10.4644 40.9092 8.63686 40.9092 6.2111C40.9092 2.38069 37.8575 0 32.945 0H22.5408V17H26.9583V12.3222H32.7383L36.1217 17H40.9933L37.1033 11.6502L37.4383 11.4986H37.4408L37.44 11.4978ZM32.625 9.08022H26.9592V3.32067H32.625C34.9433 3.32067 36.2225 4.3467 36.2225 6.21192C36.2225 8.07713 34.9117 9.0794 32.625 9.0794V9.08022Z" fill="#A19F9E"/>
<path d="M81.8725 0H60.9792L62.3117 3.34608H69.1208V17H73.7567V3.34608H80.5383L81.8708 0H81.8717H81.8725Z" fill="#A19F9E"/>
<path d="M50.4817 0L42.9792 17H47.6533L48.5792 14.5742C52.1042 13.5507 54.5533 13.4769 58.0208 14.6882L58.8992 17H63.68L56.1467 0H50.48H50.4825H50.4817ZM49.7883 11.2691L53.0467 3.62553H53.505L56.7933 11.3429C54.405 10.4119 52.1783 10.339 49.7883 11.2691Z" fill="#A19F9E"/>
<path d="M86.8025 0L79.3 17H83.9742L84.9 14.5742C88.425 13.5507 90.8742 13.4769 94.3417 14.6882L95.22 17H100.001L92.4667 0H86.8H86.8025ZM86.1083 11.2691L89.3667 3.62553H89.825L93.1133 11.3429C90.725 10.4119 88.4983 10.339 86.1083 11.2691Z" fill="#A19F9E"/>
</g>
<defs>
<clipPath id="clip0_60_1881">
<rect width="100" height="17" fill="white"/>
</clipPath>
</defs>
</svg>
