<svg width="100" height="20" viewBox="0 0 100 20" fill="none" xmlns="http://www.w3.org/2000/svg">
<g clip-path="url(#clip0_60_1883)">
<mask id="mask0_60_1883" style="mask-type:luminance" maskUnits="userSpaceOnUse" x="0" y="0" width="100" height="20">
<path d="M100 0H0V20H100V0Z" fill="white"/>
</mask>
<g mask="url(#mask0_60_1883)">
<mask id="mask1_60_1883" style="mask-type:luminance" maskUnits="userSpaceOnUse" x="0" y="0" width="100" height="20">
<path d="M100 0.276367H0V19.8815H100V0.276367Z" fill="white"/>
</mask>
<g mask="url(#mask1_60_1883)">
<mask id="mask2_60_1883" style="mask-type:luminance" maskUnits="userSpaceOnUse" x="0" y="0" width="100" height="20">
<path d="M100 0.276367H0V19.8814H100V0.276367Z" fill="white"/>
</mask>
<g mask="url(#mask2_60_1883)">
<path d="M6.81731 9.81744C6.34416 9.62139 5.74204 9.44716 4.98934 9.25111C4.34417 9.09859 3.87105 8.96789 3.54847 8.81542C3.24739 8.66295 3.09686 8.44508 3.09686 8.16191C3.09686 7.92228 3.18288 7.72624 3.37643 7.59554C3.56998 7.46483 3.84955 7.37772 4.19363 7.37772C4.62374 7.37772 4.94632 7.48665 5.20438 7.6827C5.46244 7.87875 5.61299 8.16192 5.656 8.51044H8.4947C8.38717 7.46483 7.97857 6.6371 7.2474 6.00536C6.51623 5.37363 5.52695 5.04688 4.27965 5.04688C3.41944 5.04688 2.68826 5.17758 2.0646 5.46079C1.44094 5.74396 0.989332 6.11429 0.666751 6.59351C0.34417 7.07273 0.193632 7.59553 0.193632 8.18369C0.193632 8.88077 0.365676 9.42534 0.70976 9.83926C1.05385 10.2531 1.46245 10.5363 1.95708 10.7323C2.43019 10.9284 3.03234 11.1027 3.76353 11.277C4.43019 11.4512 4.92483 11.6037 5.22587 11.7344C5.52695 11.8651 5.67749 12.0829 5.67749 12.3879C5.67749 12.6275 5.56997 12.8236 5.35492 12.9761C5.13988 13.1285 4.8388 13.1939 4.4732 13.1939C4.04309 13.1939 3.69901 13.085 3.41944 12.8671C3.13987 12.6493 2.96783 12.3661 2.92481 12.0176H-0.0859375C-0.0429266 12.6711 0.193632 13.2592 0.580728 13.8038C0.967827 14.3266 1.52697 14.7405 2.19363 15.0455C2.8818 15.3504 3.656 15.5029 4.53772 15.5029C5.35492 15.5029 6.06461 15.3722 6.68826 15.1108C7.3119 14.8494 7.78501 14.4791 8.10763 13.9999C8.43019 13.5424 8.60222 12.9978 8.60222 12.4097C8.58073 11.7126 8.40871 11.1463 8.06461 10.7323C7.69902 10.3185 7.29042 10.0135 6.81731 9.81744Z" fill="#A19F9E"/>
<path d="M14.8623 7.72644C15.658 7.72644 16.1957 8.11854 16.4537 8.90275H19.7225C19.4644 7.68286 18.9053 6.74619 18.0666 6.07087C17.2279 5.3956 16.1741 5.06885 14.9053 5.06885C13.9161 5.06885 13.0559 5.28667 12.2816 5.70058C11.529 6.13622 10.9268 6.72437 10.4967 7.53039C10.0666 8.31459 9.85156 9.25126 9.85156 10.2969C9.85156 11.3425 10.0666 12.2791 10.4967 13.0633C10.9268 13.8476 11.5075 14.4575 12.2816 14.8932C13.0343 15.3288 13.9161 15.5249 14.9053 15.5249C16.1526 15.5249 17.2064 15.1764 18.0451 14.5011C18.9053 13.8258 19.4644 12.8891 19.7225 11.691H16.4537C16.1741 12.4752 15.6365 12.8673 14.8623 12.8673C14.3032 12.8673 13.8516 12.6495 13.5075 12.192C13.1634 11.7563 13.0129 11.1247 13.0129 10.2969C13.0129 9.46908 13.1849 8.83739 13.5075 8.40171C13.8516 7.94426 14.3032 7.72644 14.8623 7.72644Z" fill="#A19F9E"/>
<path d="M24.4503 6.89886V5.19975H21.375V15.3726H24.4503V10.6456C24.4503 9.79604 24.6438 9.22965 25.0309 8.88114C25.418 8.55438 25.9986 8.3801 26.7514 8.3801H27.59V5.09082C26.9234 5.09082 26.3212 5.24329 25.7836 5.57004C25.2675 5.89679 24.8159 6.33248 24.4503 6.89886Z" fill="#A19F9E"/>
<path d="M36.1305 5.67877C35.3779 5.2649 34.5176 5.06885 33.5284 5.06885C32.5391 5.06885 31.6574 5.28667 30.8832 5.70058C30.109 6.13622 29.5284 6.72437 29.0983 7.53039C28.6682 8.31459 28.4531 9.25126 28.4531 10.2969C28.4531 11.3425 28.6682 12.2791 29.0983 13.0633C29.5284 13.8476 30.1305 14.4575 30.9047 14.8932C31.6789 15.3288 32.5391 15.5249 33.5284 15.5249C34.3456 15.5249 35.0768 15.3724 35.7434 15.0674C36.4101 14.7625 36.9477 14.3486 37.3993 13.804C37.8295 13.2594 38.1305 12.6712 38.3026 11.996H35.0338C34.7327 12.6495 34.1951 12.9762 33.4424 12.9762C32.9262 12.9762 32.4961 12.8019 32.1305 12.4752C31.7865 12.1484 31.5714 11.6475 31.5284 11.0157H38.4961C38.5391 10.689 38.5391 10.4058 38.5391 10.1008C38.5391 9.07698 38.3241 8.18389 37.894 7.42146C37.4854 6.68084 36.8832 6.09268 36.1305 5.67877ZM31.5499 9.29485C31.6359 8.72846 31.851 8.31459 32.2165 8.00961C32.5606 7.70463 33.0123 7.55216 33.5284 7.55216C34.066 7.55216 34.5176 7.70463 34.8832 8.03138C35.2488 8.35813 35.4209 8.77204 35.4209 9.31661H31.5499V9.29485Z" fill="#A19F9E"/>
<path d="M47.2243 5.67877C46.4716 5.2649 45.6114 5.06885 44.6221 5.06885C43.6329 5.06885 42.7512 5.28667 41.977 5.70058C41.2028 6.13622 40.6221 6.72437 40.1921 7.53039C39.7619 8.31459 39.5469 9.25126 39.5469 10.2969C39.5469 11.3425 39.7619 12.2791 40.1921 13.0633C40.6221 13.8476 41.2243 14.4575 41.9985 14.8932C42.7727 15.3288 43.6329 15.5249 44.6221 15.5249C45.4394 15.5249 46.1705 15.3724 46.8372 15.0674C47.504 14.7625 48.0414 14.3486 48.4932 13.804C48.9234 13.2594 49.2243 12.6712 49.3964 11.996H46.1276C45.8265 12.6495 45.2888 12.9762 44.5362 12.9762C44.02 12.9762 43.5899 12.8019 43.2243 12.4752C42.8802 12.1484 42.6652 11.6475 42.6221 11.0157H49.5901C49.6329 10.689 49.6329 10.4058 49.6329 10.1008C49.6329 9.07698 49.418 8.18389 48.9878 7.42146C48.5576 6.68084 47.977 6.09268 47.2243 5.67877ZM42.6221 9.29485C42.7082 8.72846 42.9232 8.31459 43.2888 8.00961C43.6329 7.70463 44.0845 7.55216 44.6007 7.55216C45.1383 7.55216 45.5899 7.70463 45.9555 8.03138C46.3211 8.35813 46.4931 8.77204 46.4931 9.31661H42.6221V9.29485Z" fill="#A19F9E"/>
<path d="M57.3793 5.09082C56.7126 5.09082 56.132 5.22152 55.5941 5.48292C55.0568 5.74432 54.6482 6.09284 54.3252 6.55029V5.19975H51.25V15.3726H54.3252V9.83962C54.3252 9.1643 54.4973 8.61973 54.8414 8.2494C55.1856 7.87911 55.6585 7.68306 56.2392 7.68306C56.8203 7.68306 57.2932 7.87911 57.6374 8.2494C57.9815 8.61973 58.1536 9.1643 58.1536 9.83962V15.3726H61.2072V9.42571C61.2072 8.07516 60.8631 7.00775 60.1536 6.24536C59.4869 5.48292 58.5405 5.09082 57.3793 5.09082Z" fill="#A19F9E"/>
<path d="M66.4502 1.88818H63.375V15.3721H66.4502V1.88818Z" fill="#A19F9E"/>
<path d="M99.5685 7.50842C99.1811 6.72421 98.6437 6.11429 97.9771 5.67861C97.3104 5.24293 96.5577 5.04688 95.7189 5.04688C95.0095 5.04688 94.3856 5.19939 93.8694 5.48256C93.332 5.76573 92.9235 6.15783 92.6221 6.6371V5.19939H89.5469V20.23H92.6221V13.9563C92.9235 14.4138 93.332 14.7841 93.8694 15.089C94.4072 15.3722 95.0095 15.5247 95.7189 15.5247C96.5361 15.5247 97.2888 15.3069 97.9771 14.8712C98.6437 14.4355 99.1811 13.8256 99.5685 13.0196C99.9554 12.2136 100.149 11.2987 100.149 10.2531C100.149 9.22929 99.9554 8.31439 99.5685 7.50842ZM96.3856 12.1265C95.9554 12.584 95.4392 12.8018 94.8158 12.8018C94.2135 12.8018 93.6762 12.584 93.2671 12.1265C92.8374 11.6691 92.6221 11.0591 92.6221 10.2749C92.6221 9.49069 92.8374 8.88076 93.2671 8.42332C93.6973 7.96587 94.2135 7.74805 94.8158 7.74805C95.4392 7.74805 95.9554 7.96587 96.3856 8.42332C96.8158 8.85899 97.0307 9.46892 97.0307 10.2531C97.0307 11.0373 96.8158 11.6691 96.3856 12.1265Z" fill="#A19F9E"/>
<path d="M71.7891 15.2197C69.5093 15.7207 67.7891 17.7684 67.7891 20.2081H70.4773C70.4773 18.9011 71.5309 17.8337 72.8215 17.8337C74.1116 17.8337 75.1652 18.9011 75.1652 20.2081H77.8535C77.8535 17.7466 76.1332 15.6989 73.8535 15.2197C73.5093 15.2851 73.1652 15.3286 72.7999 15.3286C72.4341 15.3286 72.1332 15.3068 71.7891 15.2197Z" fill="#A19F9E"/>
<path d="M88.666 0.276367H85.9782C85.9782 1.58337 84.9241 2.65076 83.634 2.65076C82.3435 2.65076 81.2899 1.58337 81.2899 0.276367H78.6016C78.6016 2.69433 80.279 4.74197 82.5372 5.26475C82.9029 5.17764 83.2682 5.13405 83.6556 5.13405C84.0426 5.13405 84.4083 5.17764 84.7736 5.26475C86.9673 4.74197 88.666 2.69433 88.666 0.276367Z" fill="#A19F9E"/>
<path d="M72.8371 5.13428C70.0628 5.13428 67.8047 7.42154 67.8047 10.2534C67.8047 12.6931 69.5254 14.7625 71.8047 15.2418C72.1488 15.3071 72.493 15.3507 72.8588 15.3507C73.2241 15.3507 73.5682 15.3071 73.9124 15.2418C76.1921 14.7625 77.9124 12.6931 77.9124 10.2534C77.8907 7.42154 75.6115 5.13428 72.8371 5.13428ZM72.8371 12.606C71.547 12.606 70.493 11.5386 70.493 10.2316C70.493 8.92459 71.547 7.85717 72.8371 7.85717C74.1277 7.85717 75.1813 8.92459 75.1813 10.2316C75.1813 11.5386 74.1277 12.606 72.8371 12.606Z" fill="#A19F9E"/>
<path d="M84.7346 5.26498C84.3688 5.17786 84.0035 5.13428 83.6161 5.13428C83.2292 5.13428 82.8634 5.17786 82.4981 5.26498C80.2616 5.78778 78.5625 7.81364 78.5625 10.2534C78.5625 13.0635 80.8206 15.3507 83.5949 15.3507C86.3688 15.3507 88.6269 13.0635 88.6269 10.2534C88.6702 7.81364 86.9711 5.76601 84.7346 5.26498ZM83.6161 12.606C82.326 12.606 81.2719 11.5386 81.2719 10.2316C81.2719 8.92459 82.326 7.85722 83.6161 7.85722C84.9066 7.85722 85.9602 8.92459 85.9602 10.2316C85.9602 11.5386 84.9066 12.606 83.6161 12.606Z" fill="#A19F9E"/>
</g>
</g>
</g>
</g>
<defs>
<clipPath id="clip0_60_1883">
<rect width="100" height="20" fill="white"/>
</clipPath>
</defs>
</svg>
