<svg width="100" height="18" viewBox="0 0 100 18" fill="none" xmlns="http://www.w3.org/2000/svg">
<g clip-path="url(#clip0_60_1889)">
<mask id="mask0_60_1889" style="mask-type:luminance" maskUnits="userSpaceOnUse" x="0" y="0" width="100" height="18">
<path d="M100 0H0V18H100V0Z" fill="white"/>
</mask>
<g mask="url(#mask0_60_1889)">
<mask id="mask1_60_1889" style="mask-type:luminance" maskUnits="userSpaceOnUse" x="0" y="0" width="100" height="18">
<path d="M100 0H0V17.4225H100V0Z" fill="white"/>
</mask>
<g mask="url(#mask1_60_1889)">
<mask id="mask2_60_1889" style="mask-type:luminance" maskUnits="userSpaceOnUse" x="0" y="0" width="100" height="18">
<path d="M100 0H0V17.4225H100V0Z" fill="white"/>
</mask>
<g mask="url(#mask2_60_1889)">
<path d="M22.4507 14.173C21.4522 14.3766 20.5103 14.5685 19.6547 14.4032C19.405 14.3554 19.2121 14.2418 19.1244 14.0909C19.0551 13.9718 19.0499 13.8143 19.1091 13.6226C19.2262 13.2388 19.5441 12.8511 19.8065 12.5561C19.9042 12.4463 20.0098 12.3312 20.1217 12.2094C21.3634 10.852 23.6757 8.32619 22.0312 5.76731C21.2746 4.59109 19.8798 4.03274 18.5596 4.37807C17.134 4.75118 16.1997 6.04913 15.7507 6.67231C14.9916 7.72679 14.3599 8.85674 13.7499 9.94831C12.8685 11.5241 12.0373 13.0126 10.8805 14.2232C10.1291 15.0104 9.69031 14.8675 9.54619 14.8212C9.18719 14.7048 8.8925 14.3595 8.86163 14.0181C8.83719 13.7376 8.926 13.3777 9.13444 12.9146C9.64913 11.7728 10.4726 10.7805 11.3438 9.72999C11.5766 9.44945 11.8095 9.16897 12.0372 8.88451C12.1775 8.70856 12.3255 8.53126 12.4748 8.35132C13.4321 7.19887 14.6236 5.76466 14.7727 3.89248C14.9221 2.01634 13.665 0.36248 11.8481 0.0489069C10.5293 -0.179988 9.03406 0.379679 7.4025 1.71071C2.92857 5.36112 0.115805 11.0319 0 16.5836H2.4898C2.60561 11.794 5.05809 6.89191 8.95044 3.71652C9.94637 2.90414 10.8754 2.47678 11.4351 2.57337C11.9755 2.66731 12.3358 3.13436 12.2921 3.68344C12.2084 4.73134 11.3823 5.7263 10.582 6.68947C10.4224 6.88136 10.2667 7.06921 10.1162 7.25712C9.89875 7.52969 9.67481 7.79827 9.45094 8.06814C8.50781 9.20337 7.53375 10.3783 6.87625 11.839C6.4735 12.7334 6.3165 13.5009 6.38344 14.251C6.50569 15.6244 7.47587 16.835 8.79862 17.2637C9.12544 17.3695 9.45481 17.4224 9.78419 17.4224C10.7827 17.4224 11.7761 16.9421 12.6587 16.0186C14.0381 14.5738 14.9889 12.8723 15.9091 11.2264C16.5112 10.1494 17.0799 9.13323 17.7528 8.19652C18.1762 7.60908 18.6754 6.99117 19.1746 6.86022C19.4643 6.78474 19.7846 6.91576 19.9544 7.18036C20.4704 7.98219 19.4706 9.1862 18.3088 10.455C18.1903 10.5847 18.0772 10.7091 17.9729 10.8255C17.5354 11.315 16.9989 11.9898 16.7337 12.8551C16.4597 13.7495 16.5511 14.6559 16.9898 15.4087C17.4504 16.1972 18.2341 16.7344 19.1966 16.9209C20.4138 17.1552 21.5938 16.9554 22.6527 16.7423V14.1332C22.5858 14.1465 22.5176 14.1597 22.4519 14.1743L22.4507 14.173Z" fill="#A19F9E"/>
<path d="M26.2998 3.46386C27.23 3.46386 27.9841 2.68844 27.9841 1.73192C27.9841 0.775408 27.23 0 26.2998 0C25.3695 0 24.6155 0.775408 24.6155 1.73192C24.6155 2.68844 25.3695 3.46386 26.2998 3.46386Z" fill="#A19F9E"/>
<path d="M49.8186 6.56777V0.339966H52.4191V16.5796H49.9665V15.0791C49.7813 15.2843 49.6398 15.4471 49.4905 15.6031C48.5422 16.5981 47.3725 16.9567 46.046 16.8839C45.0102 16.8271 44.0721 16.4843 43.2293 15.8744C41.9748 14.9655 41.2001 13.723 40.9016 12.179C40.6674 10.9684 40.7266 9.76437 41.168 8.61193C41.7676 7.04805 42.8112 5.90092 44.345 5.26583C45.3305 4.857 46.3471 4.76174 47.388 4.99328C48.3015 5.19703 49.0671 5.65483 49.6668 6.39708C49.6951 6.43148 49.7273 6.46324 49.8198 6.56378L49.8186 6.56777ZM46.8116 14.3992C47.9001 14.3608 48.8613 13.8699 49.4905 12.7797C49.9756 11.9382 50.0425 11.0266 49.892 10.0845C49.6036 8.27057 47.693 6.99379 45.9636 7.45954C44.5842 7.8313 43.6591 8.92024 43.443 10.4259C43.1496 12.4794 44.7103 14.3886 46.8103 14.3992H46.8116Z" fill="#A19F9E"/>
<path d="M67.535 16.9304C65.7988 16.9092 64.21 16.2688 62.9532 14.8174C61.2919 12.9002 61.086 9.9418 62.3278 7.84737C63.4044 6.03073 65.005 5.04899 67.0613 4.87434C68.6013 4.74336 70.0288 5.11647 71.265 6.07836C72.6882 7.18581 73.4794 8.67556 73.5788 10.5226C73.6675 12.1805 73.1875 13.6492 72.1025 14.8888C70.9175 16.2437 69.4119 16.8748 67.535 16.9304ZM67.5719 7.36311C65.6638 7.34851 64.1969 8.87935 64.1907 10.8917C64.1844 12.8606 65.6382 14.3993 67.5269 14.4218C69.4363 14.4442 70.9075 12.9279 70.9319 10.9103C70.9563 8.92833 69.4882 7.37763 67.5707 7.36176L67.5719 7.36311Z" fill="#A19F9E"/>
<path d="M80.8219 16.9251C78.8344 16.9185 77.1562 16.1895 75.9144 14.5713C74.315 12.4875 74.3012 9.4338 75.7831 7.39883C77.1475 5.52667 78.9819 4.73812 81.2212 4.87837C82.5569 4.96172 83.7406 5.44729 84.7519 6.35361C86.0037 7.47559 86.6919 8.89528 86.7425 10.6034C86.8119 12.9677 85.8519 14.7989 83.9 16.0493C82.9681 16.6459 81.9262 16.9185 80.8219 16.9251ZM84.0969 10.8958C84.0875 8.89656 82.59 7.32478 80.7206 7.35383C78.8044 7.38296 77.3544 8.90453 77.3556 10.8852C77.3569 12.8857 78.8481 14.4456 80.7369 14.4218C82.6544 14.3993 84.1056 12.8751 84.0981 10.8958H84.0969Z" fill="#A19F9E"/>
<path d="M39.3255 16.5837H36.7225V16.2542C36.7225 14.1691 36.7264 12.0838 36.7187 9.99866C36.7187 9.69433 36.6917 9.38473 36.626 9.08837C36.3379 7.79835 35.1721 7.07861 33.9227 7.4001C33.0167 7.63294 32.3245 8.46255 32.313 9.42311C32.2859 11.6882 32.2898 13.9534 32.2807 16.2186C32.2807 16.335 32.2807 16.4501 32.2807 16.5811H29.6777V5.19451H32.134V6.22387C32.5111 5.93147 32.8419 5.6007 33.2317 5.38504C35.284 4.25247 38.2525 4.94577 39.0863 7.72294C39.2457 8.25613 39.3218 8.83566 39.3282 9.39398C39.3539 11.7227 39.3397 14.0514 39.3385 16.3799C39.3385 16.4421 39.3307 16.5043 39.3255 16.5837Z" fill="#A19F9E"/>
<path d="M92.3388 13.6292C93.045 13.4439 93.7288 13.2641 94.3913 13.0893C94.5325 13.4374 94.6344 13.7931 94.8131 14.1015C95.35 15.0343 96.4781 14.9919 97.0819 14.6334C97.7225 14.2523 97.7506 13.0933 97.2244 12.5918C96.7575 12.1473 96.1769 11.9131 95.6163 11.6419C94.8044 11.2489 94.0119 10.8374 93.4969 10.0277C92.5681 8.56569 92.8063 6.33231 94.5869 5.29633C96.1294 4.39927 98.1881 4.81604 99.2431 6.26747C99.4725 6.58234 99.5988 6.97404 99.7969 7.38019C99.0263 7.56148 98.34 7.72155 97.7119 7.86844C97.4844 7.57337 97.32 7.26641 97.0738 7.05999C96.6813 6.73187 95.8994 6.86025 95.61 7.24256C95.275 7.68581 95.3444 8.38704 95.8288 8.72974C96.2713 9.04333 96.765 9.28414 97.2531 9.52226C97.9438 9.85969 98.6119 10.2182 99.1575 10.7871C99.6463 11.2965 99.9269 11.9211 99.9756 12.6117C100.017 13.1873 100.016 13.7999 99.8688 14.3503C99.48 15.8109 98.455 16.5969 97.0369 16.8549C95.9931 17.0454 94.9832 16.8998 94.0632 16.3428C93.0775 15.7447 92.5138 14.8371 92.3375 13.6279L92.3388 13.6292Z" fill="#A19F9E"/>
<path d="M55.7993 7.60508H53.949V5.17851H55.7814V0.339966H58.3959V5.17718H60.7262V7.60373H58.4075V16.5862H55.7993V7.60508Z" fill="#A19F9E"/>
<path d="M90.7088 16.5862H88.125V0.339966H90.7088V16.5848V16.5862Z" fill="#A19F9E"/>
<path d="M27.5071 16.5888H24.9426V5.19299H27.5071V16.5888Z" fill="#A19F9E"/>
</g>
</g>
</g>
</g>
<defs>
<clipPath id="clip0_60_1889">
<rect width="100" height="18" fill="white"/>
</clipPath>
</defs>
</svg>
