<svg width="100" height="13" viewBox="0 0 100 13" fill="none" xmlns="http://www.w3.org/2000/svg">
<g clip-path="url(#clip0_60_1885)">
<mask id="mask0_60_1885" style="mask-type:luminance" maskUnits="userSpaceOnUse" x="0" y="0" width="100" height="13">
<path d="M99.9429 0H0V13H99.9429V0Z" fill="white"/>
</mask>
<g mask="url(#mask0_60_1885)">
<path d="M17.4 4.84545C17.4 1.89091 15.6286 0.265909 12.3143 0.236364H7.37143L0.114286 0C0.0571429 0 0 0.0590909 0 0.118182L0.114286 0.768182C0.314286 1.77273 1.17143 2.51136 2.17143 2.51136L7.37143 2.74773V3.78182L2.54286 3.54545C2.48571 3.54545 2.42857 3.60455 2.42857 3.66364L2.57143 4.40227C2.77143 5.40682 3.62857 6.14545 4.62857 6.14545L7.37143 6.26364V7.15L5.31429 7.09091C5.25714 7.09091 5.2 7.15 5.2 7.20909L5.31429 7.62273C5.51429 8.65682 6.34286 9.45455 7.37143 9.51364V12.7045H10.2286V9.45455H12.0857L14.2571 12.7341H17.8857L15.1429 8.83409C16.5714 8.15455 17.4 6.825 17.4 4.84545ZM11.9429 6.88409H10.2V2.89545H12.0286C13.6286 2.89545 14.2571 3.60455 14.2571 4.99318C14.2571 6.02727 13.6 6.88409 11.9429 6.88409ZM22.7143 2.83636C21.4 2.77727 20.1143 3.27955 19.1714 4.25455C18.2286 5.22955 17.7429 6.55909 17.8286 7.91818C17.8286 10.9909 19.6286 12.9705 22.8 12.9705C25.0571 12.9705 26.4571 12.1727 27.2857 10.9614L25.4857 9.39545C24.8857 10.1341 24 10.5773 23.0571 10.5477C21.7714 10.5477 21.0286 9.92727 20.7714 8.80455H27.4857C27.5143 8.56818 27.5143 8.125 27.5143 7.94773C27.5143 4.93409 25.9143 2.83636 22.7143 2.83636ZM20.7429 6.94318C20.8571 5.93864 21.7143 5.17045 22.6857 5.22955C23.6571 5.14091 24.5429 5.87955 24.6286 6.88409C24.6286 6.91364 24.6286 6.91364 24.6286 6.94318H20.7429ZM35.3143 3.78182C34.6 3.13182 33.6571 2.80682 32.7143 2.83636C30.1429 2.83636 28.4 4.81591 28.4 7.91818C28.4 10.9909 30.1143 12.9705 32.8286 12.9705C33.7714 13.0295 34.7143 12.6455 35.3714 11.9364V12.7341H38.2V3.10227H35.3143M35.3714 9.24773C35.0286 9.95682 34.3143 10.3705 33.5714 10.3114C32.2286 10.3114 31.4286 9.39546 31.4286 7.88864C31.4286 6.32273 32.2857 5.49545 33.5143 5.49545C34.2571 5.46591 34.9714 5.85 35.3714 6.52955V9.24773ZM44.4 10.2227C43.2286 10.2818 42.2286 9.36591 42.1714 8.15455C42.1714 8.06591 42.1714 7.94773 42.1714 7.85909C42.1143 6.67727 43 5.64318 44.1429 5.58409C44.2286 5.58409 44.3143 5.58409 44.4 5.58409C45.2 5.58409 45.9429 5.99773 46.3714 6.70682L48.4 4.875C47.6 3.66364 46.1429 2.86591 44.2 2.86591C41.0286 2.86591 39.2 4.99318 39.2 7.88864C39.2 10.9318 41.0286 12.9114 44.2571 12.9114C45.8857 13 47.4571 12.2614 48.4286 10.9318L46.4286 9.1C46 9.80909 45.2286 10.2227 44.4 10.2227ZM55.3429 2.83636C54.3429 2.83636 53.4 3.19091 52.6286 3.84091V0.0886364H49.7143V12.7341H52.6571V6.32273C53.0571 5.82045 53.6571 5.525 54.2857 5.525C55.4286 5.525 55.8571 6.11591 55.8571 7.77045V12.7341H58.8V6.88409C58.8286 4.01818 57.8286 2.83636 55.3429 2.83636ZM66.6286 3.78182C65.9143 3.13182 64.9714 2.80682 64.0286 2.83636C61.4571 2.83636 59.7143 4.81591 59.7143 7.91818C59.7143 10.9909 61.4286 12.9705 64.1429 12.9705C65.0857 13.0295 66.0286 12.6455 66.6857 11.9364V12.7341H69.5143V0.0886364H66.6286M66.7143 9.21818C66.3714 9.92727 65.6571 10.3409 64.9143 10.2818C63.5714 10.2818 62.7714 9.36591 62.7714 7.85909C62.7714 6.29318 63.6286 5.46591 64.8571 5.46591C65.6 5.43636 66.3143 5.82046 66.7143 6.5V9.21818ZM75.4 2.83636C74.0857 2.77727 72.8 3.27955 71.8571 4.25455C70.9143 5.22955 70.4286 6.55909 70.5143 7.91818C70.5143 10.9909 72.3143 12.9705 75.4857 12.9705C77.7429 12.9705 79.1429 12.1727 79.9714 10.9614L78.1714 9.39545C77.5714 10.1341 76.6857 10.5773 75.7429 10.5477C74.4571 10.5477 73.7143 9.92727 73.4571 8.80455H80.1714C80.2 8.56818 80.2 8.125 80.2 7.94773C80.2 4.93409 78.6 2.83636 75.4 2.83636ZM73.4571 6.94318C73.5714 5.93864 74.4286 5.17045 75.4 5.22955C76.3714 5.14091 77.2571 5.87955 77.3429 6.88409C77.3429 6.91364 77.3429 6.91364 77.3429 6.94318H73.4571ZM85.7714 6.73636C84.2857 6.35227 83.9714 6.20455 83.9714 5.79091C83.9714 5.37727 84.3714 5.2 84.9714 5.2C85.9714 5.22955 86.9429 5.49546 87.8571 5.96818L88.8 3.63409C87.6 3.13182 86.2857 2.86591 85 2.86591C82.6572 2.86591 81.1429 3.9 81.1429 6.02727C81.1429 7.91818 82.4286 8.65682 84.3714 9.12955C85.8857 9.48409 86.2 9.63182 86.2 10.075C86.2 10.5773 85.7143 10.7841 84.8857 10.7841C83.8286 10.7841 82.8 10.4886 81.9143 9.95682L81.0572 12.2318C82.3143 12.7636 83.6857 13.0591 85.0286 13.0295C87.6 13.0295 89.1429 12.0545 89.1429 9.75C89.1143 8.00682 87.8571 7.26818 85.7714 6.73636Z" fill="#A19F9E"/>
<path d="M90.3149 0.088623V12.7341H93.2292V10.2818L94.5149 8.95225L96.6577 12.7045H99.9435L96.6292 6.88406L99.8863 3.0727H96.3435L93.2006 6.76588V0.088623H90.3149Z" fill="#A19F9E"/>
</g>
</g>
<defs>
<clipPath id="clip0_60_1885">
<rect width="100" height="13" fill="white"/>
</clipPath>
</defs>
</svg>
