<svg width="77" height="24" viewBox="0 0 77 24" fill="none" xmlns="http://www.w3.org/2000/svg">
<g clip-path="url(#clip0_60_1887)">
<mask id="mask0_60_1887" style="mask-type:luminance" maskUnits="userSpaceOnUse" x="0" y="0" width="77" height="24">
<path d="M77 0.122559H0V23.4167H77V0.122559Z" fill="white"/>
</mask>
<g mask="url(#mask0_60_1887)">
<mask id="mask1_60_1887" style="mask-type:luminance" maskUnits="userSpaceOnUse" x="0" y="0" width="77" height="24">
<path d="M76.8735 0.245117H0.121399V23.294H76.8735V0.245117Z" fill="white"/>
</mask>
<g mask="url(#mask1_60_1887)">
<mask id="mask2_60_1887" style="mask-type:luminance" maskUnits="userSpaceOnUse" x="0" y="0" width="77" height="24">
<path fill-rule="evenodd" clip-rule="evenodd" d="M23.3997 0.245117C25.0449 0.245117 26.3088 1.5263 26.3088 3.12623C26.3088 4.72617 25.0449 5.97915 23.3997 5.97915C21.7545 5.97915 20.4905 4.69797 20.4905 3.12623C20.4905 1.5545 21.7545 0.245117 23.3997 0.245117ZM8.61494 3.33833H8.1742V13.5252H8.61494C10.3196 13.5252 11.7012 11.3417 11.7012 8.43119C11.7012 5.52062 10.3196 3.3371 8.61494 3.3371V3.33833ZM56.2337 7.99594C54.7047 7.99594 53.6178 10.4406 53.6178 13.8759C53.6178 17.864 54.529 20.3958 55.9402 20.3958C56.4107 20.3958 56.7337 20.2498 56.9096 19.9299V8.14185C56.7622 8.05481 56.5567 7.99594 56.2337 7.99594ZM35.6813 4.38166V20.5405C35.6813 21.7333 36.2991 22.3746 37.121 22.724V22.8698H28.656V22.724C29.4792 22.3746 30.0957 21.7345 30.0957 20.5405V8.81857C30.0957 7.71274 29.6847 6.90601 28.656 6.5566V6.4107L35.6801 4.38044L35.6813 4.38166ZM76.906 7.15121V12.4194H76.7584C76.3762 12.1864 75.9354 12.0699 75.0241 12.0699C73.1429 12.0699 71.8798 12.9428 71.8798 16.6981V20.5405C71.8798 21.9663 72.8208 22.491 73.908 22.724V22.8698H64.8559V22.724C65.6791 22.3746 66.2956 21.7345 66.2956 20.5405V11.9829C66.2956 10.4112 65.8549 9.62526 64.8559 9.30528V9.15938L71.6446 7.15121L71.6545 12.423H71.8304C71.646 7.99594 73.9376 7.15121 76.4638 7.15121H76.9046H76.906ZM45.0241 1.64522V17.4766C45.0241 20.6471 46.1927 22.3746 47.0159 22.724V22.8698H38V22.724C38.8232 22.3746 39.4397 21.7345 39.4397 20.5405V6.07478C39.4397 4.96892 39.0287 4.19409 38 3.84467V3.69878L45.0241 1.64522ZM26.3386 7.10462V20.5417C26.3386 21.7345 26.9563 22.3758 27.7783 22.7252V22.8711H19.3132V22.7252C20.1365 22.3758 20.753 21.7358 20.753 20.5417V11.6053C20.753 10.2076 20.3704 9.59709 19.3132 9.27712V9.13121L26.3373 7.10462H26.3386ZM9.70311 2.49484C15.4632 2.49484 18.3142 4.70656 18.3142 8.43239C18.3142 12.1582 15.4632 14.3699 9.70311 14.3699H8.1742V19.5805C8.1742 21.4722 8.93806 22.3746 10.9373 22.724V22.8698H0.121399V22.724C1.26773 22.2581 2.00307 21.6181 2.00307 19.5805V5.66774C2.00307 3.65954 1.32715 3.13604 0.121399 2.64074V2.49484H9.70311ZM56.8217 7.15241C56.8513 7.15241 56.8798 7.15241 56.9096 7.15241C59.0487 7.16349 60.9576 7.5693 62.4939 8.31592V20.5405C62.4939 21.7333 62.8467 22.2581 63.9337 22.724V22.8698H59.378C58.015 22.8698 56.9096 21.775 56.9096 20.4252L56.8922 20.4754C56.3141 22.1367 54.4795 23.3063 52.5012 23.3063C49.5029 23.3063 47.5928 20.6569 47.5928 16.5534C47.5928 10.8194 51.1779 7.15241 56.8217 7.15241Z" fill="white"/>
</mask>
<g mask="url(#mask2_60_1887)">
<path d="M77 0.122559H0V23.4167H77V0.122559Z" fill="#A19F9E"/>
</g>
</g>
</g>
</g>
<defs>
<clipPath id="clip0_60_1887">
<rect width="77" height="24" fill="white"/>
</clipPath>
</defs>
</svg>
