<svg width="100" height="16" viewBox="0 0 100 16" fill="none" xmlns="http://www.w3.org/2000/svg">
<g clip-path="url(#clip0_60_1879)">
<path d="M93.0443 8.00953C93.0443 6.32163 93.9536 5.17752 95.2614 5.17752C96.7393 5.17752 97.6107 6.2465 97.6107 8.00953C97.6107 9.77252 96.7393 10.8602 95.2614 10.8602C93.9543 10.8603 93.0443 9.69753 93.0443 8.00953ZM94.7688 12.8858C96 12.8858 96.9473 12.3793 97.6107 11.5355L97.7997 12.6983H99.941V3.32086H97.7997L97.6107 4.48364C96.9473 3.63964 96 3.13338 94.7688 3.13338C92.2298 3.13338 90.5819 5.25265 90.5819 8.00967C90.5819 10.7666 92.2298 12.8858 94.7688 12.8858ZM86.7548 2.30758H89.142V0.000824598H86.7548V2.30758ZM86.7548 12.6982H89.142V3.32086H86.7548V12.6982ZM81.5257 12.8858C83.9508 12.8858 85.4666 11.6855 85.4666 9.7913C85.4666 8.38476 84.7274 7.48459 83.2685 7.20313L81.09 6.80922C80.3507 6.67791 80.0099 6.39663 80.0099 5.90904C80.0099 5.36514 80.5973 5.00886 81.4498 5.00886C82.3022 5.00886 82.9087 5.40278 83.0604 5.96536H85.3148C85.1441 4.23999 83.6662 3.13338 81.4877 3.13338C79.1385 3.13338 77.6796 4.27734 77.6796 6.07784C77.6796 7.48445 78.5699 8.4784 80.1996 8.79722L82.3781 9.19109C82.8707 9.28494 83.1363 9.58504 83.1363 9.99763C83.1363 10.6353 82.5489 11.0104 81.5446 11.0104C80.5215 11.0104 79.8777 10.5603 79.7449 9.7913H77.3767C77.4898 11.7041 79.0815 12.8858 81.5257 12.8858ZM69.8743 6.94053C70.0826 5.81523 71.0302 5.00886 72.1476 5.00886C73.3605 5.00886 74.1181 5.68407 74.3268 6.94053H69.8743ZM72.1476 12.8858C74.5348 12.8858 76.2783 11.648 76.4294 9.7913H74.2319C74.0422 10.5227 73.3226 11.0104 72.1476 11.0104C70.9164 11.0104 69.8364 9.99763 69.8175 8.60988H76.5622C76.5622 8.44104 76.5812 8.27228 76.5812 7.95346C76.5812 4.99018 74.8763 3.13352 72.1483 3.13352C69.4387 3.13352 67.5441 5.10281 67.5441 8.00981C67.5441 10.9167 69.4386 12.8858 72.1476 12.8858ZM57.7869 12.6982H60.174V7.27812C60.174 6.00285 60.9888 5.17766 62.0875 5.17766C63.1295 5.17766 63.8304 5.89037 63.8304 7.12814V12.6983H66.2176V6.84671C66.2176 4.57745 64.9482 3.13324 62.959 3.13324C61.7465 3.13324 60.7612 3.62082 60.1739 4.44601V0H57.7869V12.6982ZM54.1495 12.6982H56.423V10.7477H55.0021C54.5095 10.7477 54.1495 10.3914 54.1495 9.90365V5.27133H56.423V3.32086H54.1495V0.565294H51.7623V3.32086H50.1519V5.27133H51.7623V10.3351C51.7623 11.7041 52.7664 12.6982 54.1495 12.6982ZM40.8117 12.6982H43.1988V7.27812C43.1988 6.00285 44.0135 5.17766 45.1122 5.17766C46.1543 5.17766 46.8552 5.89037 46.8552 7.12814V12.6983H49.2424V6.84671C49.2424 4.57745 47.973 3.13324 45.9838 3.13324C44.7334 3.13324 43.7292 3.65832 43.1419 4.53982L42.9525 3.32072H40.8117V12.6982ZM31.5283 15.9615H33.9345C34.9198 15.9615 35.7533 15.3613 36.0564 14.4425L39.7697 3.32099H37.2498L35.2795 9.7913L33.3091 3.32099H30.8273L34.0292 12.9046C34.2186 13.4485 33.9156 14.0299 33.2714 14.0299H31.5285L31.5283 15.9615ZM26.6783 12.8858C29.1033 12.8858 30.619 11.6855 30.619 9.7913C30.619 8.38476 29.8801 7.48459 28.4212 7.20313L26.2425 6.80922C25.5037 6.67791 25.1626 6.39663 25.1626 5.90904C25.1626 5.36514 25.7499 5.00886 26.6025 5.00886C27.4551 5.00886 28.0613 5.40278 28.2129 5.96536H30.4675C30.2969 4.23999 28.8191 3.13338 26.6404 3.13338C24.2911 3.13338 22.8323 4.27734 22.8323 6.07784C22.8323 7.48445 23.7228 8.4784 25.3522 8.79722L27.5309 9.19109C28.0234 9.28494 28.2887 9.58504 28.2887 9.99763C28.2887 10.6353 27.7014 11.0104 26.6973 11.0104C25.6742 11.0104 25.0301 10.5603 24.8974 9.7913H22.5292C22.6428 11.7041 24.2342 12.8858 26.6783 12.8858Z" fill="#A19F9E"/>
<path d="M3.23724 13.9819H13.6114C16.167 13.9819 17.7951 12.4265 18.0602 10.0465L18.5902 5.11786H15.0122L14.52 9.61554C14.4632 10.2153 14.0845 10.5524 13.4598 10.5524H3.57802L3.23724 13.9819ZM3.57802 10.5524L4.07018 6.0548C4.12703 5.45506 4.50565 5.11786 5.13037 5.11786H15.0122L15.3531 1.68848H4.97883C2.42314 1.68848 0.795102 3.24397 0.530019 5.62386L0 10.5524H3.57802Z" fill="#A19F9E"/>
</g>
<defs>
<clipPath id="clip0_60_1879">
<rect width="100" height="16" fill="white"/>
</clipPath>
</defs>
</svg>
