<svg width="1512" height="274" viewBox="0 0 1512 274" fill="none" xmlns="http://www.w3.org/2000/svg">
<path d="M571.296 96.224C570.41 96.224 569.63 96.0187 568.958 95.608C568.286 95.188 567.764 94.5907 567.39 93.816C567.017 93.0413 566.83 92.1173 566.83 91.044C566.83 89.9707 567.017 89.0467 567.39 88.272C567.764 87.488 568.286 86.886 568.958 86.466C569.63 86.046 570.41 85.836 571.296 85.836C572.5 85.836 573.434 86.1393 574.096 86.746C574.759 87.3527 575.193 88.1787 575.398 89.224L574.124 89.308C573.984 88.5987 573.686 88.0387 573.228 87.628C572.771 87.2173 572.127 87.012 571.296 87.012C570.662 87.012 570.102 87.1753 569.616 87.502C569.14 87.8193 568.767 88.2813 568.496 88.888C568.226 89.4853 568.09 90.204 568.09 91.044C568.09 91.884 568.226 92.6027 568.496 93.2C568.767 93.7973 569.14 94.2547 569.616 94.572C570.102 94.8893 570.662 95.048 571.296 95.048C572.164 95.048 572.836 94.824 573.312 94.376C573.788 93.9187 574.087 93.3027 574.208 92.528L575.482 92.612C575.361 93.3307 575.123 93.9607 574.768 94.502C574.414 95.0433 573.942 95.468 573.354 95.776C572.776 96.0747 572.09 96.224 571.296 96.224ZM579.953 96.168C579.271 96.168 578.674 96.0093 578.161 95.692C577.647 95.3747 577.251 94.9267 576.971 94.348C576.691 93.76 576.551 93.074 576.551 92.29C576.551 91.4967 576.691 90.8107 576.971 90.232C577.251 89.6533 577.647 89.2053 578.161 88.888C578.674 88.5707 579.271 88.412 579.953 88.412C580.634 88.412 581.227 88.5707 581.731 88.888C582.244 89.2053 582.641 89.6533 582.921 90.232C583.201 90.8107 583.341 91.4967 583.341 92.29C583.341 93.074 583.201 93.76 582.921 94.348C582.641 94.9267 582.244 95.3747 581.731 95.692C581.227 96.0093 580.634 96.168 579.953 96.168ZM579.953 95.048C580.634 95.048 581.161 94.8053 581.535 94.32C581.917 93.8253 582.109 93.1487 582.109 92.29C582.109 91.4313 581.917 90.7593 581.535 90.274C581.161 89.7793 580.634 89.532 579.953 89.532C579.271 89.532 578.739 89.7793 578.357 90.274C577.974 90.7593 577.783 91.4313 577.783 92.29C577.783 93.1487 577.974 93.8253 578.357 94.32C578.739 94.8053 579.271 95.048 579.953 95.048ZM584.943 96V88.58H586.021L586.049 89.882C586.236 89.4247 586.511 89.0653 586.875 88.804C587.239 88.5427 587.659 88.412 588.135 88.412C588.695 88.412 589.167 88.5473 589.549 88.818C589.932 89.0887 590.203 89.4713 590.361 89.966C590.52 89.4713 590.786 89.0887 591.159 88.818C591.533 88.5473 591.99 88.412 592.531 88.412C593.325 88.412 593.931 88.6593 594.351 89.154C594.771 89.6393 594.981 90.33 594.981 91.226V96H593.805V91.478C593.805 90.1247 593.287 89.448 592.251 89.448C591.738 89.448 591.323 89.6347 591.005 90.008C590.697 90.3813 590.543 90.8993 590.543 91.562V96H589.367V91.562C589.367 90.8993 589.251 90.3813 589.017 90.008C588.784 89.6347 588.392 89.448 587.841 89.448C587.328 89.448 586.913 89.6347 586.595 90.008C586.278 90.3813 586.119 90.8993 586.119 91.562V96H584.943ZM596.947 96V88.58H598.025L598.053 89.882C598.24 89.4247 598.515 89.0653 598.879 88.804C599.243 88.5427 599.663 88.412 600.139 88.412C600.699 88.412 601.17 88.5473 601.553 88.818C601.936 89.0887 602.206 89.4713 602.365 89.966C602.524 89.4713 602.79 89.0887 603.163 88.818C603.536 88.5473 603.994 88.412 604.535 88.412C605.328 88.412 605.935 88.6593 606.355 89.154C606.775 89.6393 606.985 90.33 606.985 91.226V96H605.809V91.478C605.809 90.1247 605.291 89.448 604.255 89.448C603.742 89.448 603.326 89.6347 603.009 90.008C602.701 90.3813 602.547 90.8993 602.547 91.562V96H601.371V91.562C601.371 90.8993 601.254 90.3813 601.021 90.008C600.788 89.6347 600.396 89.448 599.845 89.448C599.332 89.448 598.916 89.6347 598.599 90.008C598.282 90.3813 598.123 90.8993 598.123 91.562V96H596.947ZM611.455 96.168C610.718 96.168 610.125 95.9207 609.677 95.426C609.239 94.922 609.019 94.2313 609.019 93.354V88.58H610.195V93.032C610.195 93.7507 610.321 94.2827 610.573 94.628C610.835 94.964 611.231 95.132 611.763 95.132C612.351 95.132 612.813 94.9453 613.149 94.572C613.485 94.1893 613.653 93.6667 613.653 93.004V88.58H614.829V96H613.709V94.796C613.299 95.7107 612.547 96.168 611.455 96.168ZM617.072 96V88.58H618.15L618.178 89.91C618.374 89.3967 618.673 89.0187 619.074 88.776C619.485 88.5333 619.947 88.412 620.46 88.412C621.029 88.412 621.496 88.538 621.86 88.79C622.233 89.042 622.509 89.3827 622.686 89.812C622.873 90.232 622.966 90.7033 622.966 91.226V96H621.79V91.562C621.79 90.8713 621.664 90.3487 621.412 89.994C621.169 89.63 620.768 89.448 620.208 89.448C619.639 89.448 619.167 89.63 618.794 89.994C618.43 90.3487 618.248 90.8713 618.248 91.562V96H617.072ZM625.07 96V88.58H626.246V96H625.07ZM625.042 87.418V86.046H626.274V87.418H625.042ZM630.644 96C629.972 96 629.472 95.846 629.146 95.538C628.828 95.23 628.67 94.7493 628.67 94.096V89.616H627.578V88.58H628.67V86.844H629.846V88.58H631.82V89.616H629.846V94.068C629.846 94.404 629.92 94.6373 630.07 94.768C630.219 94.8987 630.448 94.964 630.756 94.964H631.82V96H630.644ZM633.595 98.1V97.064H634.449C634.711 97.064 634.902 97.022 635.023 96.938C635.154 96.8633 635.252 96.7373 635.317 96.56L635.583 95.86H635.177L632.461 88.58H633.749L635.961 94.768L638.075 88.58H639.363L636.353 96.938C636.213 97.3393 636.003 97.6333 635.723 97.82C635.443 98.0067 635.056 98.1 634.561 98.1H633.595ZM644.293 96V88.58H645.371L645.399 89.882C645.586 89.4247 645.861 89.0653 646.225 88.804C646.589 88.5427 647.009 88.412 647.485 88.412C648.045 88.412 648.516 88.5473 648.899 88.818C649.282 89.0887 649.552 89.4713 649.711 89.966C649.87 89.4713 650.136 89.0887 650.509 88.818C650.882 88.5473 651.34 88.412 651.881 88.412C652.674 88.412 653.281 88.6593 653.701 89.154C654.121 89.6393 654.331 90.33 654.331 91.226V96H653.155V91.478C653.155 90.1247 652.637 89.448 651.601 89.448C651.088 89.448 650.672 89.6347 650.355 90.008C650.047 90.3813 649.893 90.8993 649.893 91.562V96H648.717V91.562C648.717 90.8993 648.6 90.3813 648.367 90.008C648.134 89.6347 647.742 89.448 647.191 89.448C646.678 89.448 646.262 89.6347 645.945 90.008C645.628 90.3813 645.469 90.8993 645.469 91.562V96H644.293ZM659.304 96.168C658.604 96.168 657.997 96.0093 657.484 95.692C656.98 95.3747 656.588 94.9267 656.308 94.348C656.037 93.76 655.902 93.074 655.902 92.29C655.902 91.506 656.037 90.8247 656.308 90.246C656.588 89.6673 656.975 89.2193 657.47 88.902C657.974 88.5753 658.567 88.412 659.248 88.412C659.892 88.412 660.461 88.566 660.956 88.874C661.451 89.1727 661.833 89.6113 662.104 90.19C662.384 90.7687 662.524 91.4733 662.524 92.304V92.654H657.134C657.181 93.4473 657.391 94.0447 657.764 94.446C658.147 94.8473 658.66 95.048 659.304 95.048C659.789 95.048 660.186 94.936 660.494 94.712C660.811 94.4787 661.031 94.1753 661.152 93.802L662.412 93.9C662.216 94.5627 661.843 95.1087 661.292 95.538C660.751 95.958 660.088 96.168 659.304 96.168ZM657.134 91.618H661.236C661.18 90.8993 660.97 90.372 660.606 90.036C660.251 89.7 659.799 89.532 659.248 89.532C658.679 89.532 658.207 89.7093 657.834 90.064C657.47 90.4093 657.237 90.9273 657.134 91.618ZM664.117 96V88.58H665.195L665.223 89.882C665.41 89.4247 665.685 89.0653 666.049 88.804C666.413 88.5427 666.833 88.412 667.309 88.412C667.869 88.412 668.34 88.5473 668.723 88.818C669.106 89.0887 669.376 89.4713 669.535 89.966C669.694 89.4713 669.96 89.0887 670.333 88.818C670.706 88.5473 671.164 88.412 671.705 88.412C672.498 88.412 673.105 88.6593 673.525 89.154C673.945 89.6393 674.155 90.33 674.155 91.226V96H672.979V91.478C672.979 90.1247 672.461 89.448 671.425 89.448C670.912 89.448 670.496 89.6347 670.179 90.008C669.871 90.3813 669.717 90.8993 669.717 91.562V96H668.541V91.562C668.541 90.8993 668.424 90.3813 668.191 90.008C667.958 89.6347 667.566 89.448 667.015 89.448C666.502 89.448 666.086 89.6347 665.769 90.008C665.452 90.3813 665.293 90.8993 665.293 91.562V96H664.117ZM679.66 96.168C679.146 96.168 678.689 96.056 678.288 95.832C677.886 95.5987 677.578 95.2813 677.364 94.88L677.322 96H676.258V86.06H677.434V89.616C677.62 89.308 677.91 89.0327 678.302 88.79C678.694 88.538 679.146 88.412 679.66 88.412C680.313 88.412 680.878 88.5707 681.354 88.888C681.83 89.2053 682.198 89.6533 682.46 90.232C682.721 90.8107 682.852 91.4967 682.852 92.29C682.852 93.0833 682.721 93.7693 682.46 94.348C682.198 94.9267 681.83 95.3747 681.354 95.692C680.878 96.0093 680.313 96.168 679.66 96.168ZM679.59 95.048C680.215 95.048 680.71 94.8007 681.074 94.306C681.438 93.8113 681.62 93.1393 681.62 92.29C681.62 91.4313 681.438 90.7593 681.074 90.274C680.71 89.7793 680.224 89.532 679.618 89.532C678.936 89.532 678.4 89.7793 678.008 90.274C677.625 90.7593 677.434 91.4313 677.434 92.29C677.434 93.1393 677.625 93.8113 678.008 94.306C678.39 94.8007 678.918 95.048 679.59 95.048ZM687.345 96.168C686.645 96.168 686.038 96.0093 685.525 95.692C685.021 95.3747 684.629 94.9267 684.349 94.348C684.078 93.76 683.943 93.074 683.943 92.29C683.943 91.506 684.078 90.8247 684.349 90.246C684.629 89.6673 685.016 89.2193 685.511 88.902C686.015 88.5753 686.608 88.412 687.289 88.412C687.933 88.412 688.502 88.566 688.997 88.874C689.492 89.1727 689.874 89.6113 690.145 90.19C690.425 90.7687 690.565 91.4733 690.565 92.304V92.654H685.175C685.222 93.4473 685.432 94.0447 685.805 94.446C686.188 94.8473 686.701 95.048 687.345 95.048C687.83 95.048 688.227 94.936 688.535 94.712C688.852 94.4787 689.072 94.1753 689.193 93.802L690.453 93.9C690.257 94.5627 689.884 95.1087 689.333 95.538C688.792 95.958 688.129 96.168 687.345 96.168ZM685.175 91.618H689.277C689.221 90.8993 689.011 90.372 688.647 90.036C688.292 89.7 687.84 89.532 687.289 89.532C686.72 89.532 686.248 89.7093 685.875 90.064C685.511 90.4093 685.278 90.9273 685.175 91.618ZM692.158 96V88.58H693.194L693.236 89.952C693.488 89.0373 694.076 88.58 695 88.58H695.728V89.7H695.014C693.894 89.7 693.334 90.3067 693.334 91.52V96H692.158ZM699.604 96.168C698.615 96.168 697.845 95.9347 697.294 95.468C696.753 94.992 696.454 94.39 696.398 93.662L697.63 93.578C697.705 94.026 697.896 94.3853 698.204 94.656C698.512 94.9173 698.979 95.048 699.604 95.048C700.108 95.048 700.51 94.9687 700.808 94.81C701.116 94.642 701.27 94.376 701.27 94.012C701.27 93.816 701.224 93.6527 701.13 93.522C701.037 93.3913 700.855 93.2793 700.584 93.186C700.314 93.0833 699.912 92.9853 699.38 92.892C698.671 92.7613 698.111 92.6027 697.7 92.416C697.299 92.22 697.01 91.982 696.832 91.702C696.664 91.4127 696.58 91.072 696.58 90.68C696.58 90.0173 696.823 89.476 697.308 89.056C697.794 88.6267 698.484 88.412 699.38 88.412C699.987 88.412 700.496 88.524 700.906 88.748C701.326 88.9627 701.653 89.252 701.886 89.616C702.129 89.9707 702.288 90.3627 702.362 90.792L701.13 90.876C701.046 90.484 700.855 90.162 700.556 89.91C700.267 89.658 699.87 89.532 699.366 89.532C698.834 89.532 698.442 89.6347 698.19 89.84C697.938 90.0453 697.812 90.3067 697.812 90.624C697.812 90.988 697.948 91.2587 698.218 91.436C698.489 91.604 698.951 91.744 699.604 91.856C700.36 91.9867 700.948 92.1453 701.368 92.332C701.788 92.5187 702.082 92.7473 702.25 93.018C702.418 93.2887 702.502 93.62 702.502 94.012C702.502 94.4693 702.372 94.8613 702.11 95.188C701.858 95.5053 701.513 95.748 701.074 95.916C700.645 96.084 700.155 96.168 699.604 96.168ZM708.472 96V89.616H707.464V88.58H708.472V87.908C708.472 87.3573 708.631 86.914 708.948 86.578C709.265 86.2327 709.76 86.06 710.432 86.06H711.608V87.096H710.516C710.227 87.096 710.007 87.1753 709.858 87.334C709.718 87.4927 709.648 87.712 709.648 87.992V88.58H711.51V89.616H709.648V96H708.472ZM712.844 96V88.58H713.88L713.922 89.952C714.174 89.0373 714.762 88.58 715.686 88.58H716.414V89.7H715.7C714.58 89.7 714.02 90.3067 714.02 91.52V96H712.844ZM720.486 96.168C719.804 96.168 719.207 96.0093 718.694 95.692C718.18 95.3747 717.784 94.9267 717.504 94.348C717.224 93.76 717.084 93.074 717.084 92.29C717.084 91.4967 717.224 90.8107 717.504 90.232C717.784 89.6533 718.18 89.2053 718.694 88.888C719.207 88.5707 719.804 88.412 720.486 88.412C721.167 88.412 721.76 88.5707 722.264 88.888C722.777 89.2053 723.174 89.6533 723.454 90.232C723.734 90.8107 723.874 91.4967 723.874 92.29C723.874 93.074 723.734 93.76 723.454 94.348C723.174 94.9267 722.777 95.3747 722.264 95.692C721.76 96.0093 721.167 96.168 720.486 96.168ZM720.486 95.048C721.167 95.048 721.694 94.8053 722.068 94.32C722.45 93.8253 722.642 93.1487 722.642 92.29C722.642 91.4313 722.45 90.7593 722.068 90.274C721.694 89.7793 721.167 89.532 720.486 89.532C719.804 89.532 719.272 89.7793 718.89 90.274C718.507 90.7593 718.316 91.4313 718.316 92.29C718.316 93.1487 718.507 93.8253 718.89 94.32C719.272 94.8053 719.804 95.048 720.486 95.048ZM725.476 96V88.58H726.554L726.582 89.882C726.769 89.4247 727.044 89.0653 727.408 88.804C727.772 88.5427 728.192 88.412 728.668 88.412C729.228 88.412 729.7 88.5473 730.082 88.818C730.465 89.0887 730.736 89.4713 730.894 89.966C731.053 89.4713 731.319 89.0887 731.692 88.818C732.066 88.5473 732.523 88.412 733.064 88.412C733.858 88.412 734.464 88.6593 734.884 89.154C735.304 89.6393 735.514 90.33 735.514 91.226V96H734.338V91.478C734.338 90.1247 733.82 89.448 732.784 89.448C732.271 89.448 731.856 89.6347 731.538 90.008C731.23 90.3813 731.076 90.8993 731.076 91.562V96H729.9V91.562C729.9 90.8993 729.784 90.3813 729.55 90.008C729.317 89.6347 728.925 89.448 728.374 89.448C727.861 89.448 727.446 89.6347 727.128 90.008C726.811 90.3813 726.652 90.8993 726.652 91.562V96H725.476ZM742.71 96C742.28 96 741.93 95.888 741.66 95.664C741.389 95.44 741.254 95.0853 741.254 94.6V86.06H742.43V94.502C742.43 94.81 742.584 94.964 742.892 94.964H743.536V96H742.71ZM747.802 96.168C747.102 96.168 746.496 96.0093 745.982 95.692C745.478 95.3747 745.086 94.9267 744.806 94.348C744.536 93.76 744.4 93.074 744.4 92.29C744.4 91.506 744.536 90.8247 744.806 90.246C745.086 89.6673 745.474 89.2193 745.968 88.902C746.472 88.5753 747.065 88.412 747.746 88.412C748.39 88.412 748.96 88.566 749.454 88.874C749.949 89.1727 750.332 89.6113 750.602 90.19C750.882 90.7687 751.022 91.4733 751.022 92.304V92.654H745.632C745.679 93.4473 745.889 94.0447 746.262 94.446C746.645 94.8473 747.158 95.048 747.802 95.048C748.288 95.048 748.684 94.936 748.992 94.712C749.31 94.4787 749.529 94.1753 749.65 93.802L750.91 93.9C750.714 94.5627 750.341 95.1087 749.79 95.538C749.249 95.958 748.586 96.168 747.802 96.168ZM745.632 91.618H749.734C749.678 90.8993 749.468 90.372 749.104 90.036C748.75 89.7 748.297 89.532 747.746 89.532C747.177 89.532 746.706 89.7093 746.332 90.064C745.968 90.4093 745.735 90.9273 745.632 91.618ZM754.809 96.168C754.043 96.168 753.432 95.9907 752.975 95.636C752.527 95.2813 752.303 94.7867 752.303 94.152C752.303 93.5173 752.489 93.018 752.863 92.654C753.236 92.29 753.829 92.0333 754.641 91.884L757.273 91.394C757.273 90.1527 756.685 89.532 755.509 89.532C754.995 89.532 754.589 89.6487 754.291 89.882C753.992 90.106 753.787 90.4327 753.675 90.862L752.429 90.764C752.569 90.064 752.905 89.4993 753.437 89.07C753.978 88.6313 754.669 88.412 755.509 88.412C756.461 88.412 757.189 88.6827 757.693 89.224C758.197 89.756 758.449 90.4933 758.449 91.436V94.502C758.449 94.81 758.579 94.964 758.841 94.964H759.135V96C759.023 96.0187 758.873 96.028 758.687 96.028C758.239 96.028 757.903 95.9393 757.679 95.762C757.464 95.5753 757.333 95.272 757.287 94.852C757.1 95.2347 756.778 95.552 756.321 95.804C755.863 96.0467 755.359 96.168 754.809 96.168ZM754.921 95.132C755.667 95.132 756.246 94.922 756.657 94.502C757.067 94.082 757.273 93.564 757.273 92.948V92.416L754.865 92.864C754.361 92.9573 754.011 93.102 753.815 93.298C753.628 93.4847 753.535 93.732 753.535 94.04C753.535 94.3853 753.656 94.656 753.899 94.852C754.151 95.0387 754.491 95.132 754.921 95.132ZM763.067 96.168C762.423 96.168 761.863 96.0093 761.387 95.692C760.921 95.3747 760.561 94.9267 760.309 94.348C760.057 93.7693 759.931 93.0833 759.931 92.29C759.931 91.4967 760.057 90.8107 760.309 90.232C760.561 89.6533 760.921 89.2053 761.387 88.888C761.863 88.5707 762.423 88.412 763.067 88.412C763.562 88.412 764.015 88.5193 764.425 88.734C764.836 88.9393 765.144 89.2333 765.349 89.616V86.06H766.525V96H765.461L765.419 94.88C765.214 95.2813 764.901 95.5987 764.481 95.832C764.061 96.056 763.59 96.168 763.067 96.168ZM763.305 95.048C763.968 95.048 764.472 94.8007 764.817 94.306C765.172 93.8113 765.349 93.1393 765.349 92.29C765.349 91.4313 765.172 90.7593 764.817 90.274C764.472 89.7793 763.968 89.532 763.305 89.532C762.652 89.532 762.129 89.7793 761.737 90.274C761.355 90.7593 761.163 91.4313 761.163 92.29C761.163 93.1393 761.355 93.8113 761.737 94.306C762.129 94.8007 762.652 95.048 763.305 95.048ZM768.488 96V88.58H769.664V96H768.488ZM768.46 87.418V86.046H769.692V87.418H768.46ZM772.043 96V88.58H773.121L773.149 89.91C773.345 89.3967 773.644 89.0187 774.045 88.776C774.456 88.5333 774.918 88.412 775.431 88.412C776 88.412 776.467 88.538 776.831 88.79C777.204 89.042 777.48 89.3827 777.657 89.812C777.844 90.232 777.937 90.7033 777.937 91.226V96H776.761V91.562C776.761 90.8713 776.635 90.3487 776.383 89.994C776.14 89.63 775.739 89.448 775.179 89.448C774.61 89.448 774.138 89.63 773.765 89.994C773.401 90.3487 773.219 90.8713 773.219 91.562V96H772.043ZM782.828 98.268C782.034 98.268 781.358 98.072 780.798 97.68C780.238 97.288 779.878 96.7653 779.72 96.112L780.952 96.028C781.064 96.3733 781.26 96.644 781.54 96.84C781.829 97.0453 782.258 97.148 782.828 97.148C783.5 97.148 784.013 97.0127 784.368 96.742C784.732 96.4713 784.914 96.0653 784.914 95.524V94.32C784.736 94.712 784.452 95.0247 784.06 95.258C783.668 95.4913 783.229 95.608 782.744 95.608C782.118 95.608 781.558 95.454 781.064 95.146C780.578 94.838 780.196 94.4133 779.916 93.872C779.645 93.3307 779.51 92.71 779.51 92.01C779.51 91.3007 779.645 90.68 779.916 90.148C780.186 89.6067 780.56 89.182 781.036 88.874C781.521 88.566 782.072 88.412 782.688 88.412C783.21 88.412 783.677 88.5333 784.088 88.776C784.508 89.0187 784.802 89.3453 784.97 89.756V88.58H786.09V95.496C786.09 96.364 785.8 97.0407 785.222 97.526C784.652 98.0207 783.854 98.268 782.828 98.268ZM782.8 94.488C783.434 94.488 783.943 94.2687 784.326 93.83C784.708 93.382 784.904 92.7753 784.914 92.01C784.932 91.2447 784.746 90.6427 784.354 90.204C783.962 89.756 783.444 89.532 782.8 89.532C782.146 89.532 781.638 89.756 781.274 90.204C780.919 90.6427 780.742 91.2447 780.742 92.01C780.742 92.7753 780.924 93.382 781.288 93.83C781.661 94.2687 782.165 94.488 782.8 94.488ZM790.986 96L794.57 86.06H796.194L799.778 96H798.462L797.468 93.172H793.296L792.302 96H790.986ZM793.702 91.996H797.062L795.382 87.11L793.702 91.996ZM801.072 96V86.06H802.276V96H801.072ZM811.076 96.168C810.385 96.168 809.783 96.0093 809.27 95.692C808.766 95.3747 808.374 94.9267 808.094 94.348C807.814 93.76 807.674 93.074 807.674 92.29C807.674 91.506 807.814 90.8247 808.094 90.246C808.374 89.6673 808.766 89.2193 809.27 88.902C809.783 88.5753 810.385 88.412 811.076 88.412C811.934 88.412 812.644 88.636 813.204 89.084C813.764 89.5227 814.104 90.1573 814.226 90.988L812.994 91.072C812.91 90.5773 812.695 90.1993 812.35 89.938C812.004 89.6673 811.58 89.532 811.076 89.532C810.394 89.532 809.862 89.7793 809.48 90.274C809.097 90.7593 808.906 91.4313 808.906 92.29C808.906 93.1487 809.097 93.8253 809.48 94.32C809.862 94.8053 810.394 95.048 811.076 95.048C811.58 95.048 812.004 94.908 812.35 94.628C812.695 94.348 812.91 93.928 812.994 93.368L814.226 93.452C814.104 94.2733 813.764 94.9313 813.204 95.426C812.644 95.9207 811.934 96.168 811.076 96.168ZM818.581 96.168C817.9 96.168 817.303 96.0093 816.789 95.692C816.276 95.3747 815.879 94.9267 815.599 94.348C815.319 93.76 815.179 93.074 815.179 92.29C815.179 91.4967 815.319 90.8107 815.599 90.232C815.879 89.6533 816.276 89.2053 816.789 88.888C817.303 88.5707 817.9 88.412 818.581 88.412C819.263 88.412 819.855 88.5707 820.359 88.888C820.873 89.2053 821.269 89.6533 821.549 90.232C821.829 90.8107 821.969 91.4967 821.969 92.29C821.969 93.074 821.829 93.76 821.549 94.348C821.269 94.9267 820.873 95.3747 820.359 95.692C819.855 96.0093 819.263 96.168 818.581 96.168ZM818.581 95.048C819.263 95.048 819.79 94.8053 820.163 94.32C820.546 93.8253 820.737 93.1487 820.737 92.29C820.737 91.4313 820.546 90.7593 820.163 90.274C819.79 89.7793 819.263 89.532 818.581 89.532C817.9 89.532 817.368 89.7793 816.985 90.274C816.603 90.7593 816.411 91.4313 816.411 92.29C816.411 93.1487 816.603 93.8253 816.985 94.32C817.368 94.8053 817.9 95.048 818.581 95.048ZM823.572 96V88.58H824.65L824.678 89.882C824.865 89.4247 825.14 89.0653 825.504 88.804C825.868 88.5427 826.288 88.412 826.764 88.412C827.324 88.412 827.795 88.5473 828.178 88.818C828.561 89.0887 828.831 89.4713 828.99 89.966C829.149 89.4713 829.415 89.0887 829.788 88.818C830.161 88.5473 830.619 88.412 831.16 88.412C831.953 88.412 832.56 88.6593 832.98 89.154C833.4 89.6393 833.61 90.33 833.61 91.226V96H832.434V91.478C832.434 90.1247 831.916 89.448 830.88 89.448C830.367 89.448 829.951 89.6347 829.634 90.008C829.326 90.3813 829.172 90.8993 829.172 91.562V96H827.996V91.562C827.996 90.8993 827.879 90.3813 827.646 90.008C827.413 89.6347 827.021 89.448 826.47 89.448C825.957 89.448 825.541 89.6347 825.224 90.008C824.907 90.3813 824.748 90.8993 824.748 91.562V96H823.572ZM835.576 98.1V88.58H836.668L836.682 89.714C836.906 89.2847 837.214 88.9627 837.606 88.748C838.007 88.524 838.46 88.412 838.964 88.412C839.701 88.412 840.303 88.594 840.77 88.958C841.246 89.322 841.596 89.798 841.82 90.386C842.053 90.974 842.17 91.6087 842.17 92.29C842.17 92.9713 842.053 93.606 841.82 94.194C841.596 94.782 841.246 95.258 840.77 95.622C840.303 95.986 839.701 96.168 838.964 96.168C838.479 96.168 838.035 96.0653 837.634 95.86C837.242 95.6547 836.948 95.3747 836.752 95.02V98.1H835.576ZM838.852 95.048C839.496 95.048 840.005 94.8053 840.378 94.32C840.751 93.8347 840.938 93.158 840.938 92.29C840.938 91.422 840.751 90.7453 840.378 90.26C840.005 89.7747 839.496 89.532 838.852 89.532C838.208 89.532 837.695 89.7653 837.312 90.232C836.939 90.6893 836.752 91.3753 836.752 92.29C836.752 93.1953 836.939 93.8813 837.312 94.348C837.685 94.8147 838.199 95.048 838.852 95.048ZM845.959 96.168C845.194 96.168 844.582 95.9907 844.125 95.636C843.677 95.2813 843.453 94.7867 843.453 94.152C843.453 93.5173 843.64 93.018 844.013 92.654C844.386 92.29 844.979 92.0333 845.791 91.884L848.423 91.394C848.423 90.1527 847.835 89.532 846.659 89.532C846.146 89.532 845.74 89.6487 845.441 89.882C845.142 90.106 844.937 90.4327 844.825 90.862L843.579 90.764C843.719 90.064 844.055 89.4993 844.587 89.07C845.128 88.6313 845.819 88.412 846.659 88.412C847.611 88.412 848.339 88.6827 848.843 89.224C849.347 89.756 849.599 90.4933 849.599 91.436V94.502C849.599 94.81 849.73 94.964 849.991 94.964H850.285V96C850.173 96.0187 850.024 96.028 849.837 96.028C849.389 96.028 849.053 95.9393 848.829 95.762C848.614 95.5753 848.484 95.272 848.437 94.852C848.25 95.2347 847.928 95.552 847.471 95.804C847.014 96.0467 846.51 96.168 845.959 96.168ZM846.071 95.132C846.818 95.132 847.396 94.922 847.807 94.502C848.218 94.082 848.423 93.564 848.423 92.948V92.416L846.015 92.864C845.511 92.9573 845.161 93.102 844.965 93.298C844.778 93.4847 844.685 93.732 844.685 94.04C844.685 94.3853 844.806 94.656 845.049 94.852C845.301 95.0387 845.642 95.132 846.071 95.132ZM851.613 96V88.58H852.691L852.719 89.91C852.915 89.3967 853.214 89.0187 853.615 88.776C854.026 88.5333 854.488 88.412 855.001 88.412C855.57 88.412 856.037 88.538 856.401 88.79C856.774 89.042 857.05 89.3827 857.227 89.812C857.414 90.232 857.507 90.7033 857.507 91.226V96H856.331V91.562C856.331 90.8713 856.205 90.3487 855.953 89.994C855.71 89.63 855.309 89.448 854.749 89.448C854.18 89.448 853.708 89.63 853.335 89.994C852.971 90.3487 852.789 90.8713 852.789 91.562V96H851.613ZM859.611 96V88.58H860.787V96H859.611ZM859.583 87.418V86.046H860.815V87.418H859.583ZM865.79 96.168C865.09 96.168 864.484 96.0093 863.97 95.692C863.466 95.3747 863.074 94.9267 862.794 94.348C862.524 93.76 862.388 93.074 862.388 92.29C862.388 91.506 862.524 90.8247 862.794 90.246C863.074 89.6673 863.462 89.2193 863.956 88.902C864.46 88.5753 865.053 88.412 865.734 88.412C866.378 88.412 866.948 88.566 867.442 88.874C867.937 89.1727 868.32 89.6113 868.59 90.19C868.87 90.7687 869.01 91.4733 869.01 92.304V92.654H863.62C863.667 93.4473 863.877 94.0447 864.25 94.446C864.633 94.8473 865.146 95.048 865.79 95.048C866.276 95.048 866.672 94.936 866.98 94.712C867.298 94.4787 867.517 94.1753 867.638 93.802L868.898 93.9C868.702 94.5627 868.329 95.1087 867.778 95.538C867.237 95.958 866.574 96.168 865.79 96.168ZM863.62 91.618H867.722C867.666 90.8993 867.456 90.372 867.092 90.036C866.738 89.7 866.285 89.532 865.734 89.532C865.165 89.532 864.694 89.7093 864.32 90.064C863.956 90.4093 863.723 90.9273 863.62 91.618ZM873.305 96.168C872.316 96.168 871.546 95.9347 870.995 95.468C870.454 94.992 870.155 94.39 870.099 93.662L871.331 93.578C871.406 94.026 871.597 94.3853 871.905 94.656C872.213 94.9173 872.68 95.048 873.305 95.048C873.809 95.048 874.211 94.9687 874.509 94.81C874.817 94.642 874.971 94.376 874.971 94.012C874.971 93.816 874.925 93.6527 874.831 93.522C874.738 93.3913 874.556 93.2793 874.285 93.186C874.015 93.0833 873.613 92.9853 873.081 92.892C872.372 92.7613 871.812 92.6027 871.401 92.416C871 92.22 870.711 91.982 870.533 91.702C870.365 91.4127 870.281 91.072 870.281 90.68C870.281 90.0173 870.524 89.476 871.009 89.056C871.495 88.6267 872.185 88.412 873.081 88.412C873.688 88.412 874.197 88.524 874.607 88.748C875.027 88.9627 875.354 89.252 875.587 89.616C875.83 89.9707 875.989 90.3627 876.063 90.792L874.831 90.876C874.747 90.484 874.556 90.162 874.257 89.91C873.968 89.658 873.571 89.532 873.067 89.532C872.535 89.532 872.143 89.6347 871.891 89.84C871.639 90.0453 871.513 90.3067 871.513 90.624C871.513 90.988 871.649 91.2587 871.919 91.436C872.19 91.604 872.652 91.744 873.305 91.856C874.061 91.9867 874.649 92.1453 875.069 92.332C875.489 92.5187 875.783 92.7473 875.951 93.018C876.119 93.2887 876.203 93.62 876.203 94.012C876.203 94.4693 876.073 94.8613 875.811 95.188C875.559 95.5053 875.214 95.748 874.775 95.916C874.346 96.084 873.856 96.168 873.305 96.168ZM877.483 98.184L878.155 96H877.441V94.418H879.023V95.804L878.183 98.184H877.483ZM884.262 96V88.58H885.438V96H884.262ZM884.234 87.418V86.046H885.466V87.418H884.234ZM887.816 96V88.58H888.894L888.922 89.91C889.118 89.3967 889.417 89.0187 889.818 88.776C890.229 88.5333 890.691 88.412 891.204 88.412C891.774 88.412 892.24 88.538 892.604 88.79C892.978 89.042 893.253 89.3827 893.43 89.812C893.617 90.232 893.71 90.7033 893.71 91.226V96H892.534V91.562C892.534 90.8713 892.408 90.3487 892.156 89.994C891.914 89.63 891.512 89.448 890.952 89.448C890.383 89.448 889.912 89.63 889.538 89.994C889.174 90.3487 888.992 90.8713 888.992 91.562V96H887.816ZM898.685 96.168C897.994 96.168 897.392 96.0093 896.879 95.692C896.375 95.3747 895.983 94.9267 895.703 94.348C895.423 93.76 895.283 93.074 895.283 92.29C895.283 91.506 895.423 90.8247 895.703 90.246C895.983 89.6673 896.375 89.2193 896.879 88.902C897.392 88.5753 897.994 88.412 898.685 88.412C899.544 88.412 900.253 88.636 900.813 89.084C901.373 89.5227 901.714 90.1573 901.835 90.988L900.603 91.072C900.519 90.5773 900.304 90.1993 899.959 89.938C899.614 89.6673 899.189 89.532 898.685 89.532C898.004 89.532 897.472 89.7793 897.089 90.274C896.706 90.7593 896.515 91.4313 896.515 92.29C896.515 93.1487 896.706 93.8253 897.089 94.32C897.472 94.8053 898.004 95.048 898.685 95.048C899.189 95.048 899.614 94.908 899.959 94.628C900.304 94.348 900.519 93.928 900.603 93.368L901.835 93.452C901.714 94.2733 901.373 94.9313 900.813 95.426C900.253 95.9207 899.544 96.168 898.685 96.168ZM904.817 96C904.388 96 904.038 95.888 903.767 95.664C903.497 95.44 903.361 95.0853 903.361 94.6V86.06H904.537V94.502C904.537 94.81 904.691 94.964 904.999 94.964H905.643V96H904.817ZM909.393 96.168C908.656 96.168 908.063 95.9207 907.615 95.426C907.176 94.922 906.957 94.2313 906.957 93.354V88.58H908.133V93.032C908.133 93.7507 908.259 94.2827 908.511 94.628C908.772 94.964 909.169 95.132 909.701 95.132C910.289 95.132 910.751 94.9453 911.087 94.572C911.423 94.1893 911.591 93.6667 911.591 93.004V88.58H912.767V96H911.647V94.796C911.236 95.7107 910.485 96.168 909.393 96.168ZM917.505 96.168C916.861 96.168 916.301 96.0093 915.825 95.692C915.358 95.3747 914.999 94.9267 914.747 94.348C914.495 93.7693 914.369 93.0833 914.369 92.29C914.369 91.4967 914.495 90.8107 914.747 90.232C914.999 89.6533 915.358 89.2053 915.825 88.888C916.301 88.5707 916.861 88.412 917.505 88.412C918 88.412 918.452 88.5193 918.863 88.734C919.274 88.9393 919.582 89.2333 919.787 89.616V86.06H920.963V96H919.899L919.857 94.88C919.652 95.2813 919.339 95.5987 918.919 95.832C918.499 96.056 918.028 96.168 917.505 96.168ZM917.743 95.048C918.406 95.048 918.91 94.8007 919.255 94.306C919.61 93.8113 919.787 93.1393 919.787 92.29C919.787 91.4313 919.61 90.7593 919.255 90.274C918.91 89.7793 918.406 89.532 917.743 89.532C917.09 89.532 916.567 89.7793 916.175 90.274C915.792 90.7593 915.601 91.4313 915.601 92.29C915.601 93.1393 915.792 93.8113 916.175 94.306C916.567 94.8007 917.09 95.048 917.743 95.048ZM922.926 96V88.58H924.102V96H922.926ZM922.898 87.418V86.046H924.13V87.418H922.898ZM926.48 96V88.58H927.558L927.586 89.91C927.782 89.3967 928.081 89.0187 928.482 88.776C928.893 88.5333 929.355 88.412 929.868 88.412C930.438 88.412 930.904 88.538 931.268 88.79C931.642 89.042 931.917 89.3827 932.094 89.812C932.281 90.232 932.374 90.7033 932.374 91.226V96H931.198V91.562C931.198 90.8713 931.072 90.3487 930.82 89.994C930.578 89.63 930.176 89.448 929.616 89.448C929.047 89.448 928.576 89.63 928.202 89.994C927.838 90.3487 927.656 90.8713 927.656 91.562V96H926.48ZM937.265 98.268C936.472 98.268 935.795 98.072 935.235 97.68C934.675 97.288 934.316 96.7653 934.157 96.112L935.389 96.028C935.501 96.3733 935.697 96.644 935.977 96.84C936.266 97.0453 936.696 97.148 937.265 97.148C937.937 97.148 938.45 97.0127 938.805 96.742C939.169 96.4713 939.351 96.0653 939.351 95.524V94.32C939.174 94.712 938.889 95.0247 938.497 95.258C938.105 95.4913 937.666 95.608 937.181 95.608C936.556 95.608 935.996 95.454 935.501 95.146C935.016 94.838 934.633 94.4133 934.353 93.872C934.082 93.3307 933.947 92.71 933.947 92.01C933.947 91.3007 934.082 90.68 934.353 90.148C934.624 89.6067 934.997 89.182 935.473 88.874C935.958 88.566 936.509 88.412 937.125 88.412C937.648 88.412 938.114 88.5333 938.525 88.776C938.945 89.0187 939.239 89.3453 939.407 89.756V88.58H940.527V95.496C940.527 96.364 940.238 97.0407 939.659 97.526C939.09 98.0207 938.292 98.268 937.265 98.268ZM937.237 94.488C937.872 94.488 938.38 94.2687 938.763 93.83C939.146 93.382 939.342 92.7753 939.351 92.01C939.37 91.2447 939.183 90.6427 938.791 90.204C938.399 89.756 937.881 89.532 937.237 89.532C936.584 89.532 936.075 89.756 935.711 90.204C935.356 90.6427 935.179 91.2447 935.179 92.01C935.179 92.7753 935.361 93.382 935.725 93.83C936.098 94.2687 936.602 94.488 937.237 94.488ZM942.932 96V94.418H944.514V96H942.932ZM942.932 90.498V88.916H944.514V90.498H942.932Z" fill="#7A7A7A"/>
<g clip-path="url(#clip0_60_1874)">
<path d="M349.044 178.01C349.044 176.322 349.954 175.178 351.261 175.178C352.739 175.178 353.611 176.247 353.611 178.01C353.611 179.773 352.739 180.86 351.261 180.86C349.954 180.86 349.044 179.698 349.044 178.01ZM350.769 182.886C352 182.886 352.947 182.379 353.611 181.536L353.8 182.698H355.941V173.321H353.8L353.611 174.484C352.947 173.64 352 173.133 350.769 173.133C348.23 173.133 346.582 175.253 346.582 178.01C346.582 180.767 348.23 182.886 350.769 182.886ZM342.755 172.308H345.142V170.001H342.755V172.308ZM342.755 182.698H345.142V173.321H342.755V182.698ZM337.526 182.886C339.951 182.886 341.467 181.685 341.467 179.791C341.467 178.385 340.727 177.485 339.268 177.203L337.09 176.809C336.351 176.678 336.01 176.397 336.01 175.909C336.01 175.365 336.597 175.009 337.45 175.009C338.302 175.009 338.909 175.403 339.06 175.965H341.315C341.144 174.24 339.666 173.133 337.488 173.133C335.138 173.133 333.68 174.277 333.68 176.078C333.68 177.484 334.57 178.478 336.2 178.797L338.378 179.191C338.871 179.285 339.136 179.585 339.136 179.998C339.136 180.635 338.549 181.01 337.545 181.01C336.521 181.01 335.878 180.56 335.745 179.791H333.377C333.49 181.704 335.082 182.886 337.526 182.886ZM325.874 176.941C326.083 175.815 327.03 175.009 328.148 175.009C329.361 175.009 330.118 175.684 330.327 176.941H325.874ZM328.148 182.886C330.535 182.886 332.278 181.648 332.429 179.791H330.232C330.042 180.523 329.323 181.01 328.148 181.01C326.916 181.01 325.836 179.998 325.818 178.61H332.562C332.562 178.441 332.581 178.272 332.581 177.953C332.581 174.99 330.876 173.134 328.148 173.134C325.439 173.134 323.544 175.103 323.544 178.01C323.544 180.917 325.439 182.886 328.148 182.886ZM313.787 182.698H316.174V177.278C316.174 176.003 316.989 175.178 318.088 175.178C319.129 175.178 319.83 175.89 319.83 177.128V182.698H322.218V176.847C322.218 174.577 320.948 173.133 318.959 173.133C317.746 173.133 316.761 173.621 316.174 174.446V170H313.787V182.698ZM310.149 182.698H312.423V180.748H311.002C310.51 180.748 310.149 180.391 310.149 179.904V175.271H312.423V173.321H310.149V170.565H307.762V173.321H306.152V175.271H307.762V180.335C307.762 181.704 308.766 182.698 310.149 182.698ZM296.812 182.698H299.199V177.278C299.199 176.003 300.014 175.178 301.112 175.178C302.154 175.178 302.855 175.89 302.855 177.128V182.698H305.242V176.847C305.242 174.577 303.973 173.133 301.984 173.133C300.733 173.133 299.729 173.658 299.142 174.54L298.953 173.321H296.812V182.698ZM287.528 185.962H289.935C290.92 185.962 291.753 185.361 292.056 184.443L295.77 173.321H293.25L291.279 179.791L289.309 173.321H286.827L290.029 182.905C290.219 183.448 289.916 184.03 289.271 184.03H287.528L287.528 185.962ZM282.678 182.886C285.103 182.886 286.619 181.685 286.619 179.791C286.619 178.385 285.88 177.485 284.421 177.203L282.242 176.809C281.504 176.678 281.163 176.397 281.163 175.909C281.163 175.365 281.75 175.009 282.603 175.009C283.455 175.009 284.061 175.403 284.213 175.965H286.467C286.297 174.24 284.819 173.133 282.64 173.133C280.291 173.133 278.832 174.277 278.832 176.078C278.832 177.484 279.723 178.478 281.352 178.797L283.531 179.191C284.023 179.285 284.289 179.585 284.289 179.998C284.289 180.635 283.701 181.01 282.697 181.01C281.674 181.01 281.03 180.56 280.897 179.791H278.529C278.643 181.704 280.234 182.886 282.678 182.886Z" fill="#A19F9E"/>
<path d="M259.237 183.982H269.611C272.167 183.982 273.795 182.427 274.06 180.046L274.59 175.118H271.012L270.52 179.616C270.463 180.215 270.085 180.552 269.46 180.552H259.578L259.237 183.982ZM259.578 180.552L260.07 176.055C260.127 175.455 260.506 175.118 261.13 175.118H271.012L271.353 171.688H260.979C258.423 171.688 256.795 173.244 256.53 175.624L256 180.552H259.578Z" fill="#A19F9E"/>
</g>
<g clip-path="url(#clip1_60_1874)">
<path d="M445.616 169.5H436V186.5H445.616C451.749 186.5 455.711 183.164 455.711 178.002C455.711 172.84 451.748 169.5 445.616 169.5ZM445.404 183.131H440.229V172.871H445.404C448.82 172.871 451.025 174.885 451.025 178C451.025 181.115 448.82 183.129 445.404 183.129V183.131Z" fill="#A19F9E"/>
<path d="M473.44 180.998C475.71 179.964 476.909 178.137 476.909 175.711C476.909 171.881 473.857 169.5 468.945 169.5H458.541V186.5H462.958V181.822H468.738L472.122 186.5H476.993L473.103 181.15L473.438 180.999H473.441L473.44 180.998ZM468.625 178.58H462.959V172.821H468.625C470.943 172.821 472.222 173.847 472.222 175.712C472.222 177.577 470.912 178.579 468.625 178.579V178.58Z" fill="#A19F9E"/>
<path d="M517.872 169.5H496.979L498.312 172.846H505.121V186.5H509.757V172.846H516.538L517.871 169.5H517.872H517.872Z" fill="#A19F9E"/>
<path d="M486.482 169.5L478.979 186.5H483.653L484.579 184.074C488.104 183.051 490.553 182.977 494.021 184.188L494.899 186.5H499.68L492.147 169.5H486.48H486.482H486.482ZM485.788 180.769L489.047 173.126H489.505L492.793 180.843C490.405 179.912 488.178 179.839 485.788 180.769Z" fill="#A19F9E"/>
<path d="M522.802 169.5L515.3 186.5H519.974L520.9 184.074C524.425 183.051 526.874 182.977 530.342 184.188L531.22 186.5H536.001L528.467 169.5H522.8H522.802ZM522.108 180.769L525.367 173.126H525.825L529.113 180.843C526.725 179.912 524.498 179.839 522.108 180.769Z" fill="#A19F9E"/>
</g>
<g clip-path="url(#clip2_60_1874)">
<mask id="mask0_60_1874" style="mask-type:luminance" maskUnits="userSpaceOnUse" x="616" y="168" width="100" height="20">
<path d="M716 168H616V188H716V168Z" fill="white"/>
</mask>
<g mask="url(#mask0_60_1874)">
<mask id="mask1_60_1874" style="mask-type:luminance" maskUnits="userSpaceOnUse" x="616" y="168" width="100" height="20">
<path d="M716 168.276H616V187.882H716V168.276Z" fill="white"/>
</mask>
<g mask="url(#mask1_60_1874)">
<mask id="mask2_60_1874" style="mask-type:luminance" maskUnits="userSpaceOnUse" x="616" y="168" width="100" height="20">
<path d="M716 168.276H616V187.881H716V168.276Z" fill="white"/>
</mask>
<g mask="url(#mask2_60_1874)">
<path d="M622.817 177.817C622.344 177.621 621.742 177.447 620.989 177.251C620.344 177.099 619.871 176.968 619.548 176.815C619.247 176.663 619.097 176.445 619.097 176.162C619.097 175.922 619.183 175.726 619.376 175.596C619.57 175.465 619.85 175.378 620.194 175.378C620.624 175.378 620.946 175.487 621.204 175.683C621.462 175.879 621.613 176.162 621.656 176.51H624.495C624.387 175.465 623.979 174.637 623.247 174.005C622.516 173.374 621.527 173.047 620.28 173.047C619.419 173.047 618.688 173.178 618.065 173.461C617.441 173.744 616.989 174.114 616.667 174.594C616.344 175.073 616.194 175.596 616.194 176.184C616.194 176.881 616.366 177.425 616.71 177.839C617.054 178.253 617.462 178.536 617.957 178.732C618.43 178.928 619.032 179.103 619.764 179.277C620.43 179.451 620.925 179.604 621.226 179.734C621.527 179.865 621.677 180.083 621.677 180.388C621.677 180.627 621.57 180.824 621.355 180.976C621.14 181.128 620.839 181.194 620.473 181.194C620.043 181.194 619.699 181.085 619.419 180.867C619.14 180.649 618.968 180.366 618.925 180.018H615.914C615.957 180.671 616.194 181.259 616.581 181.804C616.968 182.327 617.527 182.74 618.194 183.045C618.882 183.35 619.656 183.503 620.538 183.503C621.355 183.503 622.065 183.372 622.688 183.111C623.312 182.849 623.785 182.479 624.108 182C624.43 181.542 624.602 180.998 624.602 180.41C624.581 179.713 624.409 179.146 624.065 178.732C623.699 178.318 623.29 178.013 622.817 177.817Z" fill="#A19F9E"/>
<path d="M630.862 175.726C631.658 175.726 632.196 176.119 632.454 176.903H635.723C635.464 175.683 634.905 174.746 634.067 174.071C633.228 173.396 632.174 173.069 630.905 173.069C629.916 173.069 629.056 173.287 628.282 173.701C627.529 174.136 626.927 174.724 626.497 175.53C626.067 176.315 625.852 177.251 625.852 178.297C625.852 179.342 626.067 180.279 626.497 181.063C626.927 181.848 627.508 182.457 628.282 182.893C629.034 183.329 629.916 183.525 630.905 183.525C632.153 183.525 633.206 183.176 634.045 182.501C634.905 181.826 635.464 180.889 635.723 179.691H632.454C632.174 180.475 631.637 180.867 630.862 180.867C630.303 180.867 629.852 180.649 629.508 180.192C629.163 179.756 629.013 179.125 629.013 178.297C629.013 177.469 629.185 176.837 629.508 176.402C629.852 175.944 630.303 175.726 630.862 175.726Z" fill="#A19F9E"/>
<path d="M640.45 174.899V173.2H637.375V183.373H640.45V178.646C640.45 177.796 640.644 177.23 641.031 176.881C641.418 176.554 641.999 176.38 642.751 176.38H643.59V173.091C642.923 173.091 642.321 173.243 641.784 173.57C641.267 173.897 640.816 174.332 640.45 174.899Z" fill="#A19F9E"/>
<path d="M652.131 173.679C651.378 173.265 650.518 173.069 649.528 173.069C648.539 173.069 647.657 173.287 646.883 173.701C646.109 174.136 645.528 174.724 645.098 175.53C644.668 176.315 644.453 177.251 644.453 178.297C644.453 179.342 644.668 180.279 645.098 181.063C645.528 181.848 646.131 182.457 646.905 182.893C647.679 183.329 648.539 183.525 649.528 183.525C650.346 183.525 651.077 183.372 651.743 183.067C652.41 182.762 652.948 182.349 653.399 181.804C653.83 181.259 654.131 180.671 654.303 179.996H651.034C650.733 180.649 650.195 180.976 649.442 180.976C648.926 180.976 648.496 180.802 648.131 180.475C647.787 180.148 647.571 179.647 647.528 179.016H654.496C654.539 178.689 654.539 178.406 654.539 178.101C654.539 177.077 654.324 176.184 653.894 175.421C653.485 174.681 652.883 174.093 652.131 173.679ZM647.55 177.295C647.636 176.728 647.851 176.315 648.217 176.01C648.561 175.705 649.012 175.552 649.528 175.552C650.066 175.552 650.518 175.705 650.883 176.031C651.249 176.358 651.421 176.772 651.421 177.317H647.55V177.295Z" fill="#A19F9E"/>
<path d="M663.224 173.679C662.472 173.265 661.611 173.069 660.622 173.069C659.633 173.069 658.751 173.287 657.977 173.701C657.203 174.136 656.622 174.724 656.192 175.53C655.762 176.315 655.547 177.251 655.547 178.297C655.547 179.342 655.762 180.279 656.192 181.063C656.622 181.848 657.224 182.457 657.998 182.893C658.773 183.329 659.633 183.525 660.622 183.525C661.439 183.525 662.17 183.372 662.837 183.067C663.504 182.762 664.041 182.349 664.493 181.804C664.923 181.259 665.224 180.671 665.396 179.996H662.128C661.826 180.649 661.289 180.976 660.536 180.976C660.02 180.976 659.59 180.802 659.224 180.475C658.88 180.148 658.665 179.647 658.622 179.016H665.59C665.633 178.689 665.633 178.406 665.633 178.101C665.633 177.077 665.418 176.184 664.988 175.421C664.558 174.681 663.977 174.093 663.224 173.679ZM658.622 177.295C658.708 176.728 658.923 176.315 659.289 176.01C659.633 175.705 660.084 175.552 660.601 175.552C661.138 175.552 661.59 175.705 661.955 176.031C662.321 176.358 662.493 176.772 662.493 177.317H658.622V177.295Z" fill="#A19F9E"/>
<path d="M673.379 173.091C672.713 173.091 672.132 173.222 671.594 173.483C671.057 173.744 670.648 174.093 670.325 174.55V173.2H667.25V183.373H670.325V177.84C670.325 177.164 670.497 176.62 670.841 176.249C671.186 175.879 671.659 175.683 672.239 175.683C672.82 175.683 673.293 175.879 673.637 176.249C673.982 176.62 674.154 177.164 674.154 177.84V183.373H677.207V177.426C677.207 176.075 676.863 175.008 676.154 174.245C675.487 173.483 674.54 173.091 673.379 173.091Z" fill="#A19F9E"/>
<path d="M682.45 169.888H679.375V183.372H682.45V169.888Z" fill="#A19F9E"/>
<path d="M715.568 175.508C715.181 174.724 714.644 174.114 713.977 173.679C713.31 173.243 712.558 173.047 711.719 173.047C711.009 173.047 710.386 173.199 709.869 173.483C709.332 173.766 708.923 174.158 708.622 174.637V173.199H705.547V188.23H708.622V181.956C708.923 182.414 709.332 182.784 709.869 183.089C710.407 183.372 711.009 183.525 711.719 183.525C712.536 183.525 713.289 183.307 713.977 182.871C714.644 182.435 715.181 181.826 715.568 181.02C715.955 180.214 716.149 179.299 716.149 178.253C716.149 177.229 715.955 176.314 715.568 175.508ZM712.386 180.126C711.955 180.584 711.439 180.802 710.816 180.802C710.213 180.802 709.676 180.584 709.267 180.126C708.837 179.669 708.622 179.059 708.622 178.275C708.622 177.491 708.837 176.881 709.267 176.423C709.697 175.966 710.213 175.748 710.816 175.748C711.439 175.748 711.955 175.966 712.386 176.423C712.816 176.859 713.031 177.469 713.031 178.253C713.031 179.037 712.816 179.669 712.386 180.126Z" fill="#A19F9E"/>
<path d="M687.789 183.22C685.509 183.721 683.789 185.768 683.789 188.208H686.477C686.477 186.901 687.531 185.834 688.822 185.834C690.112 185.834 691.165 186.901 691.165 188.208H693.854C693.854 185.747 692.133 183.699 689.854 183.22C689.509 183.285 689.165 183.329 688.8 183.329C688.434 183.329 688.133 183.307 687.789 183.22Z" fill="#A19F9E"/>
<path d="M704.666 168.276H701.978C701.978 169.583 700.924 170.651 699.634 170.651C698.344 170.651 697.29 169.583 697.29 168.276H694.602C694.602 170.694 696.279 172.742 698.537 173.265C698.903 173.178 699.268 173.134 699.656 173.134C700.043 173.134 700.408 173.178 700.774 173.265C702.967 172.742 704.666 170.694 704.666 168.276Z" fill="#A19F9E"/>
<path d="M688.837 173.134C686.063 173.134 683.805 175.422 683.805 178.253C683.805 180.693 685.525 182.762 687.805 183.242C688.149 183.307 688.493 183.351 688.859 183.351C689.224 183.351 689.568 183.307 689.912 183.242C692.192 182.762 693.912 180.693 693.912 178.253C693.891 175.422 691.611 173.134 688.837 173.134ZM688.837 180.606C687.547 180.606 686.493 179.539 686.493 178.232C686.493 176.925 687.547 175.857 688.837 175.857C690.128 175.857 691.181 176.925 691.181 178.232C691.181 179.539 690.128 180.606 688.837 180.606Z" fill="#A19F9E"/>
<path d="M700.735 173.265C700.369 173.178 700.003 173.134 699.616 173.134C699.229 173.134 698.863 173.178 698.498 173.265C696.262 173.788 694.562 175.814 694.562 178.253C694.562 181.063 696.821 183.351 699.595 183.351C702.369 183.351 704.627 181.063 704.627 178.253C704.67 175.814 702.971 173.766 700.735 173.265ZM699.616 180.606C698.326 180.606 697.272 179.539 697.272 178.232C697.272 176.925 698.326 175.857 699.616 175.857C700.907 175.857 701.96 176.925 701.96 178.232C701.96 179.539 700.907 180.606 699.616 180.606Z" fill="#A19F9E"/>
</g>
</g>
</g>
</g>
<g clip-path="url(#clip3_60_1874)">
<mask id="mask3_60_1874" style="mask-type:luminance" maskUnits="userSpaceOnUse" x="796" y="171" width="100" height="14">
<path d="M895.943 171.5H796V184.5H895.943V171.5Z" fill="white"/>
</mask>
<g mask="url(#mask3_60_1874)">
<path d="M813.4 176.345C813.4 173.391 811.629 171.766 808.314 171.736H803.371L796.114 171.5C796.057 171.5 796 171.559 796 171.618L796.114 172.268C796.314 173.273 797.171 174.011 798.171 174.011L803.371 174.248V175.282L798.543 175.045C798.486 175.045 798.429 175.105 798.429 175.164L798.571 175.902C798.771 176.907 799.629 177.645 800.629 177.645L803.371 177.764V178.65L801.314 178.591C801.257 178.591 801.2 178.65 801.2 178.709L801.314 179.123C801.514 180.157 802.343 180.955 803.371 181.014V184.205H806.229V180.955H808.086L810.257 184.234H813.886L811.143 180.334C812.571 179.655 813.4 178.325 813.4 176.345ZM807.943 178.384H806.2V174.395H808.029C809.629 174.395 810.257 175.105 810.257 176.493C810.257 177.527 809.6 178.384 807.943 178.384ZM818.714 174.336C817.4 174.277 816.114 174.78 815.171 175.755C814.229 176.73 813.743 178.059 813.829 179.418C813.829 182.491 815.629 184.47 818.8 184.47C821.057 184.47 822.457 183.673 823.286 182.461L821.486 180.895C820.886 181.634 820 182.077 819.057 182.048C817.771 182.048 817.029 181.427 816.771 180.305H823.486C823.514 180.068 823.514 179.625 823.514 179.448C823.514 176.434 821.914 174.336 818.714 174.336ZM816.743 178.443C816.857 177.439 817.714 176.67 818.686 176.73C819.657 176.641 820.543 177.38 820.629 178.384C820.629 178.414 820.629 178.414 820.629 178.443H816.743ZM831.314 175.282C830.6 174.632 829.657 174.307 828.714 174.336C826.143 174.336 824.4 176.316 824.4 179.418C824.4 182.491 826.114 184.47 828.829 184.47C829.771 184.53 830.714 184.145 831.371 183.436V184.234H834.2V174.602H831.314M831.371 180.748C831.029 181.457 830.314 181.87 829.571 181.811C828.229 181.811 827.429 180.895 827.429 179.389C827.429 177.823 828.286 176.995 829.514 176.995C830.257 176.966 830.971 177.35 831.371 178.03V180.748ZM840.4 181.723C839.229 181.782 838.229 180.866 838.171 179.655C838.171 179.566 838.171 179.448 838.171 179.359C838.114 178.177 839 177.143 840.143 177.084C840.229 177.084 840.314 177.084 840.4 177.084C841.2 177.084 841.943 177.498 842.371 178.207L844.4 176.375C843.6 175.164 842.143 174.366 840.2 174.366C837.029 174.366 835.2 176.493 835.2 179.389C835.2 182.432 837.029 184.411 840.257 184.411C841.886 184.5 843.457 183.761 844.429 182.432L842.429 180.6C842 181.309 841.229 181.723 840.4 181.723ZM851.343 174.336C850.343 174.336 849.4 174.691 848.629 175.341V171.589H845.714V184.234H848.657V177.823C849.057 177.32 849.657 177.025 850.286 177.025C851.429 177.025 851.857 177.616 851.857 179.27V184.234H854.8V178.384C854.829 175.518 853.829 174.336 851.343 174.336ZM862.629 175.282C861.914 174.632 860.971 174.307 860.029 174.336C857.457 174.336 855.714 176.316 855.714 179.418C855.714 182.491 857.429 184.47 860.143 184.47C861.086 184.53 862.029 184.145 862.686 183.436V184.234H865.514V171.589H862.629M862.714 180.718C862.371 181.427 861.657 181.841 860.914 181.782C859.571 181.782 858.771 180.866 858.771 179.359C858.771 177.793 859.629 176.966 860.857 176.966C861.6 176.936 862.314 177.32 862.714 178V180.718ZM871.4 174.336C870.086 174.277 868.8 174.78 867.857 175.755C866.914 176.73 866.429 178.059 866.514 179.418C866.514 182.491 868.314 184.47 871.486 184.47C873.743 184.47 875.143 183.673 875.971 182.461L874.171 180.895C873.571 181.634 872.686 182.077 871.743 182.048C870.457 182.048 869.714 181.427 869.457 180.305H876.171C876.2 180.068 876.2 179.625 876.2 179.448C876.2 176.434 874.6 174.336 871.4 174.336ZM869.457 178.443C869.571 177.439 870.429 176.67 871.4 176.73C872.371 176.641 873.257 177.38 873.343 178.384C873.343 178.414 873.343 178.414 873.343 178.443H869.457ZM881.771 178.236C880.286 177.852 879.971 177.705 879.971 177.291C879.971 176.877 880.371 176.7 880.971 176.7C881.971 176.73 882.943 176.995 883.857 177.468L884.8 175.134C883.6 174.632 882.286 174.366 881 174.366C878.657 174.366 877.143 175.4 877.143 177.527C877.143 179.418 878.429 180.157 880.371 180.63C881.886 180.984 882.2 181.132 882.2 181.575C882.2 182.077 881.714 182.284 880.886 182.284C879.829 182.284 878.8 181.989 877.914 181.457L877.057 183.732C878.314 184.264 879.686 184.559 881.029 184.53C883.6 184.53 885.143 183.555 885.143 181.25C885.114 179.507 883.857 178.768 881.771 178.236Z" fill="#A19F9E"/>
<path d="M886.315 171.589V184.234H889.229V181.782L890.515 180.452L892.658 184.205H895.943L892.629 178.384L895.886 174.573H892.343L889.201 178.266V171.589H886.315Z" fill="#A19F9E"/>
</g>
</g>
<g clip-path="url(#clip4_60_1874)">
<mask id="mask4_60_1874" style="mask-type:luminance" maskUnits="userSpaceOnUse" x="987" y="166" width="78" height="24">
<path d="M1064.5 166.123H987.5V189.417H1064.5V166.123Z" fill="white"/>
</mask>
<g mask="url(#mask4_60_1874)">
<mask id="mask5_60_1874" style="mask-type:luminance" maskUnits="userSpaceOnUse" x="987" y="166" width="78" height="24">
<path d="M1064.37 166.245H987.621V189.294H1064.37V166.245Z" fill="white"/>
</mask>
<g mask="url(#mask5_60_1874)">
<mask id="mask6_60_1874" style="mask-type:luminance" maskUnits="userSpaceOnUse" x="987" y="166" width="78" height="24">
<path fill-rule="evenodd" clip-rule="evenodd" d="M1010.9 166.245C1012.54 166.245 1013.81 167.526 1013.81 169.126C1013.81 170.726 1012.54 171.979 1010.9 171.979C1009.25 171.979 1007.99 170.698 1007.99 169.126C1007.99 167.554 1009.25 166.245 1010.9 166.245ZM996.115 169.338H995.674V179.525H996.115C997.82 179.525 999.201 177.342 999.201 174.431C999.201 171.521 997.82 169.337 996.115 169.337V169.338ZM1043.73 173.996C1042.2 173.996 1041.12 176.441 1041.12 179.876C1041.12 183.864 1042.03 186.396 1043.44 186.396C1043.91 186.396 1044.23 186.25 1044.41 185.93V174.142C1044.26 174.055 1044.06 173.996 1043.73 173.996ZM1023.18 170.382V186.54C1023.18 187.733 1023.8 188.375 1024.62 188.724V188.87H1016.16V188.724C1016.98 188.375 1017.6 187.735 1017.6 186.54V174.819C1017.6 173.713 1017.18 172.906 1016.16 172.557V172.411L1023.18 170.38L1023.18 170.382ZM1064.41 173.151V178.419H1064.26C1063.88 178.186 1063.44 178.07 1062.52 178.07C1060.64 178.07 1059.38 178.943 1059.38 182.698V186.54C1059.38 187.966 1060.32 188.491 1061.41 188.724V188.87H1052.36V188.724C1053.18 188.375 1053.8 187.735 1053.8 186.54V177.983C1053.8 176.411 1053.35 175.625 1052.36 175.305V175.159L1059.14 173.151L1059.15 178.423H1059.33C1059.15 173.996 1061.44 173.151 1063.96 173.151H1064.4H1064.41ZM1032.52 167.645V183.477C1032.52 186.647 1033.69 188.375 1034.52 188.724V188.87H1025.5V188.724C1026.32 188.375 1026.94 187.735 1026.94 186.54V172.075C1026.94 170.969 1026.53 170.194 1025.5 169.845V169.699L1032.52 167.645ZM1013.84 173.105V186.542C1013.84 187.735 1014.46 188.376 1015.28 188.725V188.871H1006.81V188.725C1007.64 188.376 1008.25 187.736 1008.25 186.542V177.605C1008.25 176.208 1007.87 175.597 1006.81 175.277V175.131L1013.84 173.105H1013.84ZM997.203 168.495C1002.96 168.495 1005.81 170.707 1005.81 174.432C1005.81 178.158 1002.96 180.37 997.203 180.37H995.674V185.58C995.674 187.472 996.438 188.375 998.437 188.724V188.87H987.621V188.724C988.768 188.258 989.503 187.618 989.503 185.58V171.668C989.503 169.66 988.827 169.136 987.621 168.641V168.495H997.203ZM1044.32 173.152C1044.35 173.152 1044.38 173.152 1044.41 173.152C1046.55 173.163 1048.46 173.569 1049.99 174.316V186.54C1049.99 187.733 1050.35 188.258 1051.43 188.724V188.87H1046.88C1045.52 188.87 1044.41 187.775 1044.41 186.425L1044.39 186.475C1043.81 188.137 1041.98 189.306 1040 189.306C1037 189.306 1035.09 186.657 1035.09 182.553C1035.09 176.819 1038.68 173.152 1044.32 173.152Z" fill="white"/>
</mask>
<g mask="url(#mask6_60_1874)">
<path d="M1064.5 166.123H987.5V189.417H1064.5V166.123Z" fill="#A19F9E"/>
</g>
</g>
</g>
</g>
<g clip-path="url(#clip5_60_1874)">
<mask id="mask7_60_1874" style="mask-type:luminance" maskUnits="userSpaceOnUse" x="1156" y="169" width="100" height="18">
<path d="M1256 169H1156V187H1256V169Z" fill="white"/>
</mask>
<g mask="url(#mask7_60_1874)">
<mask id="mask8_60_1874" style="mask-type:luminance" maskUnits="userSpaceOnUse" x="1156" y="169" width="100" height="18">
<path d="M1256 169H1156V186.422H1256V169Z" fill="white"/>
</mask>
<g mask="url(#mask8_60_1874)">
<mask id="mask9_60_1874" style="mask-type:luminance" maskUnits="userSpaceOnUse" x="1156" y="169" width="100" height="18">
<path d="M1256 169H1156V186.422H1256V169Z" fill="white"/>
</mask>
<g mask="url(#mask9_60_1874)">
<path d="M1178.45 183.173C1177.45 183.377 1176.51 183.569 1175.65 183.403C1175.41 183.355 1175.21 183.242 1175.12 183.091C1175.06 182.972 1175.05 182.814 1175.11 182.623C1175.23 182.239 1175.54 181.851 1175.81 181.556C1175.9 181.446 1176.01 181.331 1176.12 181.209C1177.36 179.852 1179.68 177.326 1178.03 174.767C1177.27 173.591 1175.88 173.033 1174.56 173.378C1173.13 173.751 1172.2 175.049 1171.75 175.672C1170.99 176.727 1170.36 177.857 1169.75 178.948C1168.87 180.524 1168.04 182.013 1166.88 183.223C1166.13 184.01 1165.69 183.868 1165.55 183.821C1165.19 183.705 1164.89 183.359 1164.86 183.018C1164.84 182.738 1164.93 182.378 1165.13 181.915C1165.65 180.773 1166.47 179.78 1167.34 178.73C1167.58 178.449 1167.81 178.169 1168.04 177.885C1168.18 177.709 1168.33 177.531 1168.47 177.351C1169.43 176.199 1170.62 174.765 1170.77 172.892C1170.92 171.016 1169.67 169.362 1167.85 169.049C1166.53 168.82 1165.03 169.38 1163.4 170.711C1158.93 174.361 1156.12 180.032 1156 185.584H1158.49C1158.61 180.794 1161.06 175.892 1164.95 172.717C1165.95 171.904 1166.88 171.477 1167.44 171.573C1167.98 171.667 1168.34 172.134 1168.29 172.683C1168.21 173.731 1167.38 174.726 1166.58 175.689C1166.42 175.881 1166.27 176.069 1166.12 176.257C1165.9 176.53 1165.67 176.798 1165.45 177.068C1164.51 178.203 1163.53 179.378 1162.88 180.839C1162.47 181.733 1162.32 182.501 1162.38 183.251C1162.51 184.624 1163.48 185.835 1164.8 186.264C1165.13 186.37 1165.45 186.422 1165.78 186.422C1166.78 186.422 1167.78 185.942 1168.66 185.019C1170.04 183.574 1170.99 181.872 1171.91 180.226C1172.51 179.149 1173.08 178.133 1173.75 177.197C1174.18 176.609 1174.68 175.991 1175.17 175.86C1175.46 175.785 1175.78 175.916 1175.95 176.18C1176.47 176.982 1175.47 178.186 1174.31 179.455C1174.19 179.585 1174.08 179.709 1173.97 179.825C1173.54 180.315 1173 180.99 1172.73 181.855C1172.46 182.75 1172.55 183.656 1172.99 184.409C1173.45 185.197 1174.23 185.734 1175.2 185.921C1176.41 186.155 1177.59 185.955 1178.65 185.742V183.133C1178.59 183.146 1178.52 183.16 1178.45 183.174L1178.45 183.173Z" fill="#A19F9E"/>
<path d="M1182.3 172.464C1183.23 172.464 1183.98 171.688 1183.98 170.732C1183.98 169.775 1183.23 169 1182.3 169C1181.37 169 1180.62 169.775 1180.62 170.732C1180.62 171.688 1181.37 172.464 1182.3 172.464Z" fill="#A19F9E"/>
<path d="M1205.82 175.568V169.34H1208.42V185.58H1205.97V184.079C1205.78 184.284 1205.64 184.447 1205.49 184.603C1204.54 185.598 1203.37 185.957 1202.05 185.884C1201.01 185.827 1200.07 185.484 1199.23 184.874C1197.97 183.965 1197.2 182.723 1196.9 181.179C1196.67 179.968 1196.73 178.764 1197.17 177.612C1197.77 176.048 1198.81 174.901 1200.34 174.266C1201.33 173.857 1202.35 173.762 1203.39 173.993C1204.3 174.197 1205.07 174.655 1205.67 175.397C1205.7 175.431 1205.73 175.463 1205.82 175.564L1205.82 175.568ZM1202.81 183.399C1203.9 183.361 1204.86 182.87 1205.49 181.78C1205.98 180.938 1206.04 180.027 1205.89 179.085C1205.6 177.271 1203.69 175.994 1201.96 176.46C1200.58 176.831 1199.66 177.92 1199.44 179.426C1199.15 181.479 1200.71 183.389 1202.81 183.399H1202.81Z" fill="#A19F9E"/>
<path d="M1223.54 185.93C1221.8 185.909 1220.21 185.269 1218.95 183.817C1217.29 181.9 1217.09 178.942 1218.33 176.847C1219.4 175.031 1221.01 174.049 1223.06 173.874C1224.6 173.743 1226.03 174.116 1227.27 175.078C1228.69 176.186 1229.48 177.676 1229.58 179.523C1229.67 181.18 1229.19 182.649 1228.1 183.889C1226.92 185.244 1225.41 185.875 1223.54 185.93ZM1223.57 176.363C1221.66 176.349 1220.2 177.879 1220.19 179.892C1220.18 181.861 1221.64 183.399 1223.53 183.422C1225.44 183.444 1226.91 181.928 1226.93 179.91C1226.96 177.928 1225.49 176.378 1223.57 176.362L1223.57 176.363Z" fill="#A19F9E"/>
<path d="M1236.82 185.925C1234.83 185.918 1233.16 185.189 1231.91 183.571C1230.31 181.487 1230.3 178.434 1231.78 176.399C1233.15 174.527 1234.98 173.738 1237.22 173.878C1238.56 173.962 1239.74 174.447 1240.75 175.354C1242 176.476 1242.69 177.895 1242.74 179.603C1242.81 181.968 1241.85 183.799 1239.9 185.049C1238.97 185.646 1237.93 185.918 1236.82 185.925ZM1240.1 179.896C1240.09 177.897 1238.59 176.325 1236.72 176.354C1234.8 176.383 1233.35 177.905 1233.36 179.885C1233.36 181.886 1234.85 183.446 1236.74 183.422C1238.65 183.399 1240.11 181.875 1240.1 179.896H1240.1Z" fill="#A19F9E"/>
<path d="M1195.33 185.584H1192.72V185.254C1192.72 183.169 1192.73 181.084 1192.72 178.999C1192.72 178.694 1192.69 178.385 1192.63 178.088C1192.34 176.798 1191.17 176.079 1189.92 176.4C1189.02 176.633 1188.32 177.463 1188.31 178.423C1188.29 180.688 1188.29 182.953 1188.28 185.219C1188.28 185.335 1188.28 185.45 1188.28 185.581H1185.68V174.195H1188.13V175.224C1188.51 174.931 1188.84 174.601 1189.23 174.385C1191.28 173.252 1194.25 173.946 1195.09 176.723C1195.25 177.256 1195.32 177.836 1195.33 178.394C1195.35 180.723 1195.34 183.051 1195.34 185.38C1195.34 185.442 1195.33 185.504 1195.33 185.584Z" fill="#A19F9E"/>
<path d="M1248.34 182.629C1249.05 182.444 1249.73 182.264 1250.39 182.089C1250.53 182.437 1250.63 182.793 1250.81 183.101C1251.35 184.034 1252.48 183.992 1253.08 183.633C1253.72 183.252 1253.75 182.093 1253.22 181.592C1252.76 181.147 1252.18 180.913 1251.62 180.642C1250.8 180.249 1250.01 179.837 1249.5 179.028C1248.57 177.566 1248.81 175.332 1250.59 174.296C1252.13 173.399 1254.19 173.816 1255.24 175.267C1255.47 175.582 1255.6 175.974 1255.8 176.38C1255.03 176.561 1254.34 176.722 1253.71 176.868C1253.48 176.573 1253.32 176.266 1253.07 176.06C1252.68 175.732 1251.9 175.86 1251.61 176.243C1251.28 176.686 1251.34 177.387 1251.83 177.73C1252.27 178.043 1252.77 178.284 1253.25 178.522C1253.94 178.86 1254.61 179.218 1255.16 179.787C1255.65 180.297 1255.93 180.921 1255.98 181.612C1256.02 182.187 1256.02 182.8 1255.87 183.35C1255.48 184.811 1254.46 185.597 1253.04 185.855C1251.99 186.045 1250.98 185.9 1250.06 185.343C1249.08 184.745 1248.51 183.837 1248.34 182.628L1248.34 182.629Z" fill="#A19F9E"/>
<path d="M1211.8 176.605H1209.95V174.179H1211.78V169.34H1214.4V174.177H1216.73V176.604H1214.41V185.586H1211.8V176.605Z" fill="#A19F9E"/>
<path d="M1246.71 185.586H1244.12V169.34H1246.71V185.585V185.586Z" fill="#A19F9E"/>
<path d="M1183.51 185.589H1180.94V174.193H1183.51V185.589Z" fill="#A19F9E"/>
</g>
</g>
</g>
</g>
<defs>
<clipPath id="clip0_60_1874">
<rect width="100" height="16" fill="white" transform="translate(256 170)"/>
</clipPath>
<clipPath id="clip1_60_1874">
<rect width="100" height="17" fill="white" transform="translate(436 169.5)"/>
</clipPath>
<clipPath id="clip2_60_1874">
<rect width="100" height="20" fill="white" transform="translate(616 168)"/>
</clipPath>
<clipPath id="clip3_60_1874">
<rect width="100" height="13" fill="white" transform="translate(796 171.5)"/>
</clipPath>
<clipPath id="clip4_60_1874">
<rect width="77" height="24" fill="white" transform="translate(987.5 166)"/>
</clipPath>
<clipPath id="clip5_60_1874">
<rect width="100" height="18" fill="white" transform="translate(1156 169)"/>
</clipPath>
</defs>
</svg>
