<svg width="280" height="80" viewBox="0 0 280 80" fill="none" xmlns="http://www.w3.org/2000/svg">
<path d="M7.75666 44.392L0 13.067H8.94999L13.3653 37.5899H14.499L19.7496 13.067H30.0719L35.5016 37.5899H36.6353L40.9313 13.067H49.7023L41.886 44.392H30.0719L25.1793 20.048H24.165L19.511 44.392H7.75666ZM68.578 45.2274C65.4354 45.2274 62.6709 44.6108 60.2843 43.3777C57.8976 42.1048 56.0281 40.2551 54.6756 37.8286C53.3231 35.3624 52.6469 32.2995 52.6469 28.64C52.6469 24.9805 53.3231 21.9374 54.6756 19.511C56.0678 17.0846 57.9572 15.2747 60.344 14.0813C62.7704 12.8482 65.515 12.2316 68.578 12.2316C71.7204 12.2316 74.485 12.8482 76.8716 14.0813C79.298 15.3145 81.1874 17.1642 82.5399 19.6304C83.9321 22.0568 84.6283 25.0997 84.6283 28.7594C84.6283 32.4587 83.9123 35.5414 82.4803 38.0076C81.088 40.434 79.1787 42.244 76.7523 43.4373C74.3656 44.6306 71.6408 45.2274 68.578 45.2274ZM68.8763 38.843C70.4276 38.843 71.7203 38.485 72.7546 37.769C73.8286 37.053 74.6242 35.979 75.1412 34.547C75.6981 33.0752 75.9766 31.305 75.9766 29.2367C75.9766 27.0489 75.6783 25.1992 75.0816 23.6876C74.5246 22.1364 73.6894 20.9629 72.5756 20.1673C71.4619 19.3319 70.0497 18.9144 68.3393 18.9144C66.8675 18.9144 65.5946 19.2723 64.5206 19.9883C63.4466 20.6646 62.6311 21.7385 62.0742 23.2103C61.5174 24.6424 61.239 26.4124 61.239 28.5207C61.239 31.9017 61.9152 34.4674 63.2677 36.2176C64.62 37.9678 66.4896 38.843 68.8763 38.843ZM90.7366 44.392V24.3439V13.067H97.5983V22.4347H98.732C99.2889 20.1275 100.025 18.2381 100.94 16.7663C101.855 15.2547 102.948 14.1211 104.221 13.3653C105.534 12.6095 107.065 12.2316 108.816 12.2316C110.685 12.2316 112.236 12.6493 113.47 13.4847C114.703 14.3201 115.657 15.4934 116.334 17.005C117.01 18.4767 117.447 20.2867 117.646 22.4347H118.601C119.198 20.0877 119.993 18.1586 120.988 16.647C122.022 15.1355 123.235 14.0216 124.627 13.3056C126.059 12.5897 127.63 12.2316 129.341 12.2316C131.051 12.2316 132.543 12.5698 133.816 13.246C135.128 13.9222 136.222 14.9366 137.098 16.289C137.973 17.6017 138.629 19.2723 139.067 21.301C139.505 23.2899 139.723 25.597 139.723 28.2223V44.392H131.131V29.2963C131.131 27.1484 130.952 25.3583 130.594 23.9264C130.236 22.4545 129.679 21.3606 128.923 20.6446C128.168 19.9286 127.194 19.5706 126 19.5706C124.687 19.5706 123.553 20.0281 122.599 20.9429C121.644 21.8181 120.888 23.0314 120.331 24.5826C119.774 26.134 119.476 27.9041 119.436 29.893V44.392H111.023V29.535C111.023 27.3074 110.824 25.4776 110.427 24.0456C110.029 22.5739 109.452 21.4601 108.696 20.7043C107.94 19.9485 106.986 19.5706 105.832 19.5706C104.48 19.5706 103.326 20.0281 102.372 20.9429C101.417 21.8181 100.681 23.0512 100.164 24.6424C99.6468 26.2334 99.3684 28.0036 99.3286 29.9527V44.392H90.7366ZM161.758 45.2274C159.171 45.2274 156.865 44.8693 154.836 44.1533C152.847 43.4373 151.157 42.4031 149.765 41.0506C148.372 39.6982 147.298 38.0276 146.542 36.0386C145.826 34.0497 145.468 31.8023 145.468 29.2963C145.468 26.8301 145.806 24.5628 146.482 22.4943C147.198 20.3861 148.233 18.5762 149.585 17.0647C150.937 15.5134 152.588 14.3201 154.538 13.4847C156.487 12.6493 158.695 12.2316 161.16 12.2316C163.547 12.2316 165.675 12.6295 167.545 13.425C169.414 14.1808 170.966 15.3343 172.199 16.8857C173.472 18.437 174.387 20.3463 174.943 22.6137C175.54 24.8412 175.759 27.4069 175.599 30.3106L151.017 30.5493V25.8357L170.648 25.6566L167.605 28.0434C167.883 25.9351 167.743 24.2047 167.187 22.8523C166.629 21.4998 165.815 20.5054 164.741 19.869C163.706 19.2325 162.552 18.9144 161.28 18.9144C159.768 18.9144 158.435 19.3121 157.283 20.1077C156.129 20.9033 155.234 22.0766 154.598 23.628C153.96 25.1395 153.642 26.9693 153.642 29.1173C153.642 32.4985 154.378 34.9845 155.85 36.5757C157.361 38.1667 159.331 38.9623 161.758 38.9623C162.87 38.9623 163.806 38.823 164.561 38.5446C165.357 38.2265 165.993 37.8286 166.471 37.3513C166.987 36.874 167.385 36.337 167.664 35.7403C167.983 35.1437 168.241 34.547 168.44 33.9503L175.898 35.5613C175.54 37.033 175.003 38.3657 174.287 39.559C173.611 40.7125 172.696 41.7269 171.542 42.602C170.388 43.4373 168.997 44.0737 167.365 44.5114C165.775 44.9887 163.905 45.2274 161.758 45.2274ZM181.868 44.392V25.418V13.067H188.909L188.849 22.4347H190.043C190.559 20.1673 191.295 18.2779 192.25 16.7663C193.205 15.2547 194.398 14.1211 195.83 13.3653C197.302 12.6095 199.033 12.2316 201.021 12.2316C204.64 12.2316 207.385 13.5045 209.255 16.0503C211.164 18.5961 212.118 22.5937 212.118 28.0434V44.392H203.468V28.998C203.468 25.6566 202.97 23.2302 201.976 21.7187C201.021 20.1673 199.609 19.3917 197.739 19.3917C196.148 19.3917 194.816 19.8889 193.742 20.8833C192.667 21.8777 191.853 23.1904 191.295 24.8213C190.779 26.4124 190.499 28.2024 190.461 30.1913V44.392H181.868ZM242.115 45.2274C240.365 45.2274 238.813 44.8893 237.46 44.2129C236.108 43.497 235.054 42.4827 234.298 41.17C233.543 39.8573 233.165 38.2265 233.165 36.2774C233.165 34.5668 233.483 33.1349 234.119 31.9813C234.796 30.8277 235.77 29.893 237.042 29.1769C238.316 28.4609 239.887 27.8643 241.757 27.387C243.626 26.9097 245.754 26.492 248.141 26.134C249.413 25.9351 250.448 25.7561 251.244 25.597C252.08 25.3981 252.696 25.0997 253.094 24.702C253.491 24.2645 253.69 23.6479 253.69 22.8523C253.69 21.7385 253.292 20.7839 252.496 19.9883C251.701 19.1927 250.448 18.795 248.737 18.795C247.584 18.795 246.51 18.9938 245.516 19.3917C244.56 19.7894 243.726 20.3861 243.01 21.1817C242.333 21.9772 241.836 22.9916 241.518 24.2247L233.94 21.8977C234.418 20.2667 235.094 18.8546 235.968 17.6613C236.884 16.468 237.978 15.4736 239.251 14.678C240.523 13.8426 241.975 13.2261 243.606 12.8283C245.237 12.4306 247.007 12.2316 248.917 12.2316C251.98 12.2316 254.466 12.7289 256.375 13.7233C258.324 14.678 259.776 16.1895 260.73 18.258C261.686 20.2867 262.162 22.912 262.162 26.134V31.504C262.162 32.8962 262.182 34.3083 262.222 35.7403C262.302 37.1723 262.381 38.6242 262.461 40.0959C262.58 41.5279 262.7 42.96 262.819 44.392H255.241C255.082 43.3975 254.923 42.2639 254.764 40.991C254.645 39.6783 254.545 38.3657 254.466 37.053H253.392C252.834 38.5646 252.04 39.9369 251.005 41.17C249.971 42.4031 248.697 43.3975 247.187 44.1533C245.714 44.8693 244.024 45.2274 242.115 45.2274ZM245.754 39.022C246.51 39.022 247.266 38.8828 248.021 38.6044C248.817 38.3259 249.573 37.948 250.289 37.4707C251.045 36.9536 251.721 36.317 252.318 35.5613C252.954 34.8055 253.471 33.9503 253.869 32.9956L253.75 27.9836L255.122 28.282C254.406 28.799 253.57 29.2167 252.616 29.535C251.662 29.8134 250.667 30.0323 249.633 30.1913C248.639 30.3504 247.643 30.5294 246.649 30.7283C245.654 30.9271 244.76 31.1858 243.964 31.504C243.208 31.8222 242.592 32.2598 242.115 32.8166C241.677 33.3337 241.458 34.0697 241.458 35.0243C241.458 36.2574 241.856 37.232 242.652 37.948C243.448 38.664 244.482 39.022 245.754 39.022ZM269.678 44.392V13.067H278.27V44.392H269.678ZM274.034 8.35328C272.364 8.35328 271.07 8.01518 270.156 7.339C269.28 6.62301 268.843 5.58877 268.843 4.23633C268.843 2.84411 269.28 1.79001 270.156 1.074C271.07 0.358005 272.364 0 274.034 0C275.745 0 277.037 0.358005 277.912 1.074C278.828 1.79001 279.284 2.84411 279.284 4.23633C279.284 5.54898 278.828 6.56338 277.912 7.27936C277.037 7.99535 275.745 8.35328 274.034 8.35328Z" fill="#222121"/>
<path d="M222.966 44.2129C221.096 44.2129 219.684 43.8152 218.729 43.0196C217.815 42.2241 217.357 40.991 217.357 39.3203C217.357 37.6099 217.815 36.3568 218.729 35.5613C219.684 34.7658 221.096 34.368 222.966 34.368C224.875 34.368 226.287 34.7658 227.202 35.5613C228.157 36.3568 228.634 37.6099 228.634 39.3203C228.634 42.5821 226.745 44.2129 222.966 44.2129ZM222.966 23.5087C221.096 23.5087 219.684 23.1108 218.729 22.3153C217.815 21.5198 217.357 20.2867 217.357 18.616C217.357 16.9055 217.815 15.6526 218.729 14.857C219.684 14.0614 221.096 13.6637 222.966 13.6637C224.875 13.6637 226.287 14.0614 227.202 14.857C228.157 15.6526 228.634 16.9055 228.634 18.616C228.634 21.8777 226.745 23.5087 222.966 23.5087Z" fill="#4D4EBA"/>
<path d="M16.3844 65.1788C16.3844 65.2584 16.3526 65.33 16.289 65.3936C16.2412 65.4413 16.1776 65.4653 16.0981 65.4653H9.48698C9.40744 65.4653 9.36765 65.505 9.36765 65.5845V70.0714C9.36765 70.151 9.40744 70.1908 9.48698 70.1908H13.7352C13.8148 70.1908 13.8784 70.2226 13.9262 70.2863C13.9898 70.334 14.0216 70.3977 14.0216 70.4773V72.2911C14.0216 72.3706 13.9898 72.4422 13.9262 72.5058C13.8784 72.5536 13.8148 72.5774 13.7352 72.5774H9.48698C9.40744 72.5774 9.36765 72.6172 9.36765 72.6968V79.4988C9.36765 79.5783 9.33583 79.6499 9.27219 79.7136C9.22446 79.7613 9.1608 79.7852 9.08126 79.7852H6.88553C6.80597 79.7852 6.73437 79.7613 6.67072 79.7136C6.62299 79.6499 6.59912 79.5783 6.59912 79.4988V63.365C6.59912 63.2854 6.62299 63.2217 6.67072 63.174C6.73437 63.1103 6.80597 63.0785 6.88553 63.0785H16.0981C16.1776 63.0785 16.2412 63.1103 16.289 63.174C16.3526 63.2217 16.3844 63.2854 16.3844 63.365V65.1788ZM27.9665 80C26.9163 80 25.9855 79.7852 25.1741 79.3556C24.3785 78.926 23.758 78.3214 23.3125 77.5418C22.8829 76.7462 22.6681 75.8314 22.6681 74.7971V68.0667C22.6681 67.0484 22.8829 66.1494 23.3125 65.3697C23.758 64.5742 24.3785 63.9617 25.1741 63.532C25.9855 63.1025 26.9163 62.8876 27.9665 62.8876C29.0326 62.8876 29.9633 63.1025 30.7589 63.532C31.5704 63.9617 32.1988 64.5742 32.6443 65.3697C33.0898 66.1494 33.3126 67.0484 33.3126 68.0667V74.7971C33.3126 75.8314 33.0898 76.7462 32.6443 77.5418C32.1988 78.3214 31.5704 78.926 30.7589 79.3556C29.9633 79.7852 29.0326 80 27.9665 80ZM27.9665 77.6134C28.7461 77.6134 29.3667 77.3667 29.828 76.8734C30.3054 76.3643 30.544 75.712 30.544 74.9164V67.9951C30.544 67.1837 30.3054 66.5313 29.828 66.038C29.3667 65.5289 28.7461 65.2742 27.9665 65.2742C27.2028 65.2742 26.5902 65.5289 26.1287 66.038C25.6674 66.5313 25.4366 67.1837 25.4366 67.9951V74.9164C25.4366 75.712 25.6674 76.3643 26.1287 76.8734C26.5902 77.3667 27.2028 77.6134 27.9665 77.6134ZM48.753 79.7852C48.578 79.7852 48.4667 79.7057 48.4189 79.5465L45.8413 72.6968C45.8095 72.6332 45.7697 72.6014 45.722 72.6014H43.6694C43.5899 72.6014 43.5501 72.6412 43.5501 72.7206V79.4988C43.5501 79.5783 43.5183 79.6499 43.4547 79.7136C43.4069 79.7613 43.3433 79.7852 43.2637 79.7852H41.0679C40.9885 79.7852 40.9169 79.7613 40.8531 79.7136C40.8055 79.6499 40.7816 79.5783 40.7816 79.4988V63.365C40.7816 63.2854 40.8055 63.2217 40.8531 63.174C40.9169 63.1103 40.9885 63.0785 41.0679 63.0785H46.5812C47.4881 63.0785 48.2917 63.2854 48.9917 63.6991C49.6918 64.0969 50.2328 64.6697 50.6146 65.4175C50.9965 66.1494 51.1874 66.9927 51.1874 67.9473C51.1874 68.9815 50.9487 69.8805 50.4714 70.6443C49.9941 71.408 49.3417 71.949 48.5143 72.2672C48.4348 72.299 48.4109 72.3547 48.4427 72.4343L51.259 79.4511C51.275 79.4829 51.2828 79.5307 51.2828 79.5943C51.2828 79.7215 51.2034 79.7852 51.0442 79.7852H48.753ZM43.6694 65.4653C43.5899 65.4653 43.5501 65.505 43.5501 65.5845V70.334C43.5501 70.4135 43.5899 70.4533 43.6694 70.4533H46.1754C46.8437 70.4533 47.3847 70.2306 47.7984 69.7851C48.2121 69.3236 48.4189 68.7191 48.4189 67.9713C48.4189 67.2075 48.2121 66.6029 47.7984 66.1574C47.3847 65.6959 46.8437 65.4653 46.1754 65.4653H43.6694ZM63.4814 79.9762C62.4471 79.9762 61.5323 79.7613 60.7367 79.3318C59.9411 78.9021 59.3206 78.2976 58.8751 77.5178C58.4455 76.7224 58.2307 75.8074 58.2307 74.7732V63.365C58.2307 63.2854 58.2545 63.2217 58.3023 63.174C58.3659 63.1103 58.4376 63.0785 58.5172 63.0785H60.7129C60.7924 63.0785 60.856 63.1103 60.9038 63.174C60.9674 63.2217 60.9992 63.2854 60.9992 63.365V74.9164C60.9992 75.712 61.222 76.3563 61.6675 76.8496C62.1289 77.3428 62.7336 77.5894 63.4814 77.5894C64.2292 77.5894 64.8337 77.3428 65.2952 76.8496C65.7567 76.3563 65.9874 75.712 65.9874 74.9164V63.365C65.9874 63.2854 66.0112 63.2217 66.059 63.174C66.1226 63.1103 66.1942 63.0785 66.2738 63.0785H68.4696C68.549 63.0785 68.6127 63.1103 68.6604 63.174C68.7241 63.2217 68.7559 63.2854 68.7559 63.365V74.7732C68.7559 75.8074 68.5332 76.7224 68.0877 77.5178C67.658 78.2976 67.0455 78.9021 66.2499 79.3318C65.4543 79.7613 64.5315 79.9762 63.4814 79.9762ZM85.5495 63.2695C85.6131 63.1421 85.7245 63.0785 85.8836 63.0785H88.1031C88.1827 63.0785 88.2464 63.1103 88.2941 63.174C88.3578 63.2217 88.3896 63.2854 88.3896 63.365V79.4988C88.3896 79.5783 88.3578 79.6499 88.2941 79.7136C88.2464 79.7613 88.1827 79.7852 88.1031 79.7852H85.9074C85.8279 79.7852 85.7563 79.7613 85.6927 79.7136C85.6449 79.6499 85.6211 79.5783 85.6211 79.4988V68.186C85.6211 68.1223 85.6051 68.0905 85.5733 68.0905C85.5415 68.0747 85.5097 68.0905 85.4779 68.1383L82.9479 72.3149C82.8843 72.4422 82.773 72.5058 82.6138 72.5058H82.1603C82.0013 72.5058 81.8898 72.4422 81.8262 72.3149L79.2964 68.1621C79.2646 68.1144 79.2328 68.0985 79.201 68.1144C79.1691 68.1144 79.1532 68.1463 79.1532 68.2099V79.4988C79.1532 79.5783 79.1214 79.6499 79.0577 79.7136C79.0099 79.7613 78.9463 79.7852 78.8667 79.7852H76.671C76.5915 79.7852 76.5199 79.7613 76.4563 79.7136C76.4085 79.6499 76.3847 79.5783 76.3847 79.4988V63.365C76.3847 63.2854 76.4085 63.2217 76.4563 63.174C76.5199 63.1103 76.5915 63.0785 76.671 63.0785H78.8667C79.0259 63.0785 79.1373 63.1421 79.201 63.2695L82.3275 68.2576C82.3751 68.3531 82.4229 68.3531 82.4706 68.2576L85.5495 63.2695Z" fill="#4D4EBA"/>
</svg>
