<svg width="13" height="13" viewBox="0 0 13 13" fill="none" xmlns="http://www.w3.org/2000/svg">
<path d="M12.9137 5.4798L11.6177 2.88691C11.57 2.79147 11.5039 2.70638 11.4233 2.63648C11.3427 2.56658 11.2491 2.51325 11.1478 2.47954C11.0466 2.44582 10.9397 2.43238 10.8332 2.43998C10.7268 2.44757 10.6229 2.47607 10.5275 2.52382L9.26454 3.15503L6.60411 2.4512C6.53585 2.43344 6.46417 2.43344 6.39591 2.4512L3.73548 3.15503L2.47255 2.52382C2.37712 2.47607 2.27322 2.44757 2.16678 2.43998C2.06034 2.43238 1.95345 2.44582 1.8522 2.47954C1.75096 2.51325 1.65735 2.56658 1.57672 2.63648C1.49609 2.70638 1.43001 2.79147 1.38227 2.88691L0.0863364 5.47929C0.0385797 5.57472 0.0100885 5.67862 0.00248986 5.78506C-0.0051088 5.8915 0.00833392 5.99839 0.0420503 6.09963C0.0757668 6.20088 0.129096 6.29449 0.198994 6.37512C0.268891 6.45575 0.353987 6.52182 0.449422 6.56956L1.82052 7.25562L4.63837 9.26808C4.67989 9.29762 4.72656 9.31915 4.77599 9.33156L8.02598 10.1441C8.09405 10.1611 8.16537 10.1603 8.233 10.1416C8.30064 10.1229 8.36228 10.087 8.41192 10.0374L10.4432 8.00617L11.209 7.24038L12.5506 6.56956C12.7432 6.47315 12.8896 6.30419 12.9577 6.09984C13.0258 5.89549 13.01 5.67247 12.9137 5.4798ZM10.1263 7.17437L8.37891 5.77484C8.30063 5.71215 8.20193 5.68063 8.1018 5.68635C8.00168 5.69207 7.9072 5.73462 7.83657 5.80581C6.93216 6.71683 5.92415 6.60156 5.28126 6.19531L7.47704 4.06249H9.09239L10.4741 6.8255L10.1263 7.17437ZM8.00009 9.30007L5.04868 8.56222L2.55024 6.77777L3.97212 3.93402L6.50001 3.26421L6.99766 3.39574L4.71251 5.61386L4.70845 5.61843C4.62243 5.70445 4.55682 5.80869 4.51647 5.92345C4.47612 6.03822 4.46205 6.16058 4.47531 6.2815C4.48856 6.40243 4.52881 6.51884 4.59307 6.62213C4.65732 6.72543 4.74396 6.81297 4.84657 6.87831C5.89063 7.54507 7.15052 7.43691 8.14278 6.62441L9.54688 7.75226L8.00009 9.30007ZM6.69399 11.0673C6.67205 11.1551 6.62141 11.233 6.55011 11.2888C6.47881 11.3445 6.39094 11.3749 6.30044 11.375C6.26706 11.3749 6.23381 11.3709 6.20142 11.3628L4.08333 10.8332C4.03384 10.8209 3.98713 10.7994 3.94571 10.7697L2.60763 9.81398C2.52535 9.74938 2.47116 9.65553 2.45635 9.55198C2.44154 9.44843 2.46724 9.34316 2.5281 9.25808C2.58896 9.17301 2.68029 9.11468 2.78308 9.09526C2.88587 9.07584 2.99218 9.09682 3.07989 9.15382L4.35501 10.0648L6.39845 10.5747C6.50295 10.6008 6.59279 10.6674 6.64821 10.7598C6.70364 10.8521 6.7201 10.9627 6.69399 11.0673Z" fill="#0C58AE"/>
</svg>
