<svg width="13" height="13" viewBox="0 0 13 13" fill="none" xmlns="http://www.w3.org/2000/svg">
<path d="M3.2561 7.50547C3.25748 7.53299 3.25324 7.5605 3.24365 7.58633C3.23406 7.61215 3.21932 7.63576 3.20032 7.65571C3.18132 7.67566 3.15846 7.69154 3.13313 7.70238C3.1078 7.71321 3.08053 7.71879 3.05297 7.71875H0.812506C0.720813 7.71889 0.631769 7.68801 0.559855 7.63112C0.487941 7.57423 0.437387 7.49469 0.416412 7.40543C0.403351 7.34433 0.403953 7.28111 0.418175 7.22027C0.432397 7.15943 0.459886 7.10249 0.498677 7.05352C0.857096 6.57819 1.33265 6.20394 1.87891 5.96731C1.63909 5.74864 1.45515 5.4757 1.3425 5.17133C1.22985 4.86696 1.19177 4.54003 1.23146 4.21792C1.27114 3.89581 1.38743 3.58789 1.57059 3.31997C1.75374 3.05204 1.99843 2.83191 2.28416 2.67799C2.56989 2.52408 2.88834 2.44087 3.21284 2.43534C3.53734 2.42981 3.85844 2.50211 4.14925 2.64619C4.44006 2.79028 4.69211 3.00194 4.88429 3.26347C5.07647 3.525 5.20319 3.82877 5.25383 4.14934C5.26037 4.19245 5.25265 4.23651 5.23184 4.27483C5.21103 4.31314 5.17828 4.34361 5.13856 4.3616C4.57509 4.6221 4.09788 5.03833 3.76325 5.5612C3.42863 6.08406 3.25054 6.69173 3.25001 7.3125C3.25001 7.3775 3.25001 7.44149 3.2561 7.50547ZM12.4983 7.05301C12.1407 6.57824 11.6662 6.20419 11.1211 5.96731C11.3609 5.74864 11.5449 5.4757 11.6575 5.17133C11.7702 4.86696 11.8082 4.54003 11.7686 4.21792C11.7289 3.89581 11.6126 3.58789 11.4294 3.31997C11.2463 3.05204 11.0016 2.83191 10.7158 2.67799C10.4301 2.52408 10.1117 2.44087 9.78717 2.43534C9.46267 2.42981 9.14157 2.50211 8.85076 2.64619C8.55995 2.79028 8.3079 3.00194 8.11572 3.26347C7.92354 3.525 7.79682 3.82877 7.74618 4.14934C7.73964 4.19245 7.74736 4.23651 7.76817 4.27483C7.78898 4.31314 7.82173 4.34361 7.86145 4.3616C8.42492 4.6221 8.90213 5.03833 9.23676 5.5612C9.57138 6.08406 9.74947 6.69173 9.75001 7.3125C9.75001 7.3775 9.75001 7.44149 9.74391 7.50547C9.74253 7.53299 9.74677 7.5605 9.75636 7.58633C9.76595 7.61215 9.78069 7.63576 9.79969 7.65571C9.81869 7.67566 9.84155 7.69154 9.86688 7.70238C9.89221 7.71321 9.91949 7.71879 9.94704 7.71875H12.1875C12.2792 7.71889 12.3682 7.68801 12.4402 7.63112C12.5121 7.57423 12.5626 7.49469 12.5836 7.40543C12.5967 7.34422 12.5961 7.28086 12.5818 7.21992C12.5675 7.15897 12.5398 7.10197 12.5008 7.05301H12.4983ZM7.97875 9.24574C8.38325 8.93596 8.68051 8.50721 8.82875 8.01976C8.97699 7.53231 8.96876 7.01066 8.80521 6.52813C8.64167 6.0456 8.33103 5.62644 7.91696 5.32958C7.50288 5.03271 7.0062 4.87306 6.4967 4.87306C5.98721 4.87306 5.49052 5.03271 5.07645 5.32958C4.66238 5.62644 4.35174 6.0456 4.1882 6.52813C4.02465 7.01066 4.01642 7.53231 4.16466 8.01976C4.3129 8.50721 4.61016 8.93596 5.01465 9.24574C4.29688 9.55674 3.69752 10.0894 3.30434 10.7656C3.26868 10.8274 3.24991 10.8975 3.24991 10.9688C3.24992 11.0401 3.2687 11.1102 3.30436 11.1719C3.34003 11.2337 3.39133 11.285 3.4531 11.3206C3.51487 11.3563 3.58494 11.375 3.65626 11.375H9.34376C9.41508 11.375 9.48514 11.3563 9.54691 11.3206C9.60868 11.285 9.65998 11.2337 9.69565 11.1719C9.73131 11.1102 9.75009 11.0401 9.7501 10.9688C9.7501 10.8975 9.73133 10.8274 9.69567 10.7656C9.30164 10.0889 8.70117 9.55626 7.98231 9.24574H7.97875Z" fill="#047B43"/>
</svg>
