<svg width="13" height="13" viewBox="0 0 13 13" fill="none" xmlns="http://www.w3.org/2000/svg">
<path d="M12.5074 6.13641L10.4762 2.07391C10.4091 1.93878 10.3055 1.82512 10.1772 1.74579C10.0488 1.66645 9.90087 1.62461 9.74999 1.625H3.24999C3.09912 1.62461 2.95115 1.66645 2.82282 1.74579C2.69449 1.82512 2.59092 1.93878 2.52382 2.07391L0.492572 6.13641C0.430601 6.26025 0.401312 6.39788 0.407485 6.53622C0.413658 6.67456 0.455088 6.80903 0.527841 6.92686C0.600595 7.04469 0.702258 7.14197 0.823178 7.20947C0.944098 7.27696 1.08026 7.31243 1.21874 7.3125H6.09374V10.5625H4.87499C4.76725 10.5625 4.66392 10.6053 4.58773 10.6815C4.51155 10.7577 4.46874 10.861 4.46874 10.9688C4.46874 11.0765 4.51155 11.1798 4.58773 11.256C4.66392 11.3322 4.76725 11.375 4.87499 11.375H8.12499C8.23274 11.375 8.33607 11.3322 8.41226 11.256C8.48844 11.1798 8.53124 11.0765 8.53124 10.9688C8.53124 10.861 8.48844 10.7577 8.41226 10.6815C8.33607 10.6053 8.23274 10.5625 8.12499 10.5625H6.90624V7.3125H11.7812C11.9198 7.31252 12.056 7.27711 12.177 7.20965C12.298 7.1422 12.3997 7.04492 12.4725 6.92708C12.5453 6.80924 12.5868 6.67473 12.593 6.53635C12.5992 6.39796 12.5699 6.26029 12.5079 6.13641H12.5074ZM9.74999 6.09375H3.24999C3.14225 6.09375 3.03892 6.05095 2.96273 5.97477C2.88654 5.89858 2.84374 5.79525 2.84374 5.6875C2.84374 5.57976 2.88654 5.47643 2.96273 5.40024C3.03892 5.32405 3.14225 5.28125 3.24999 5.28125H9.74999C9.85774 5.28125 9.96107 5.32405 10.0373 5.40024C10.1134 5.47643 10.1562 5.57976 10.1562 5.6875C10.1562 5.79525 10.1134 5.89858 10.0373 5.97477C9.96107 6.05095 9.85774 6.09375 9.74999 6.09375Z" fill="#96580A"/>
</svg>
