<svg width="252" height="32" viewBox="0 0 252 32" fill="none" xmlns="http://www.w3.org/2000/svg">
<g clip-path="url(#clip0_60_213)">
<mask id="mask0_60_213" style="mask-type:luminance" maskUnits="userSpaceOnUse" x="0" y="0" width="54" height="32">
<path d="M53.9037 0.179199H0V31.5518H53.9037V0.179199Z" fill="white"/>
</mask>
<g mask="url(#mask0_60_213)">
<path d="M17.968 10.6367H35.936V0.179199H27.3532C22.1699 0.179199 17.968 0.179199 17.968 5.66287V10.6367Z" fill="url(#paint0_linear_60_213)"/>
<path d="M35.936 21.0942H17.968V31.5517H26.5507C31.734 31.5517 35.936 31.5517 35.936 26.0681V21.0942Z" fill="url(#paint1_linear_60_213)"/>
<path d="M35.9357 0.179199H18.0278H0L8.79984e-07 21.0942H18.0278V10.6386L18.0253 10.1957C17.9937 4.673 22.472 0.179199 28.0073 0.179199H35.9357Z" fill="#00AF66"/>
<path d="M17.968 31.5516H35.8759H53.9038V10.6367H35.8759V21.0923L35.8786 21.5353C35.9102 27.0579 31.4318 31.5516 25.8966 31.5516H17.968Z" fill="#00AF66"/>
</g>
<path d="M84.9855 9.31458C84.8645 8.0975 84.3454 7.152 83.428 6.47806C82.5105 5.80413 81.2656 5.46718 79.6927 5.46718C78.6241 5.46718 77.722 5.61804 76.9859 5.91981C76.2499 6.21152 75.6855 6.61889 75.2923 7.14191C74.9093 7.66497 74.7177 8.25842 74.7177 8.9223C74.6975 9.47552 74.8133 9.95832 75.0653 10.3707C75.3276 10.7831 75.6855 11.1402 76.1391 11.442C76.5927 11.7337 77.1169 11.9902 77.7117 12.2114C78.3066 12.4227 78.9418 12.6037 79.6172 12.7546L82.3998 13.4185C83.7506 13.7202 84.9906 14.1226 86.1197 14.6255C87.2489 15.1284 88.2267 15.747 89.0534 16.4813C89.88 17.2156 90.5204 18.0806 90.974 19.0764C91.4378 20.0722 91.6747 21.2139 91.6847 22.5013C91.6747 24.3924 91.1906 26.0319 90.233 27.42C89.2854 28.7981 87.9141 29.8692 86.1197 30.6337C84.3354 31.388 82.1828 31.7653 79.6625 31.7653C77.1625 31.7653 74.9848 31.3831 73.1299 30.6186C71.2848 29.8541 69.8431 28.7226 68.805 27.224C67.7765 25.7151 67.2372 23.8492 67.1868 21.6263H73.5229C73.5935 22.6623 73.891 23.5273 74.4153 24.2214C74.9494 24.9054 75.6602 25.4234 76.5474 25.7754C77.4447 26.1174 78.4578 26.2884 79.5871 26.2884C80.6959 26.2884 81.6586 26.1275 82.4752 25.8056C83.3018 25.4837 83.9422 25.0361 84.3958 24.4628C84.8494 23.8894 85.0763 23.2306 85.0763 22.4863C85.0763 21.7922 84.8696 21.2088 84.4562 20.7361C84.053 20.2633 83.4582 19.861 82.672 19.5291C81.8955 19.1971 80.943 18.8954 79.8137 18.6238L76.4415 17.7789C73.8304 17.1452 71.7689 16.1544 70.2566 14.8066C68.7443 13.4587 67.9934 11.6431 68.0034 9.35984C67.9934 7.48894 68.4923 5.85444 69.5006 4.45628C70.5188 3.05815 71.9149 1.96679 73.6894 1.18222C75.4637 0.397655 77.48 0.00537109 79.7383 0.00537109C82.0367 0.00537109 84.043 0.397655 85.7569 1.18222C87.4807 1.96679 88.8216 3.05815 89.7792 4.45628C90.737 5.85444 91.2311 7.47385 91.2613 9.31458H84.9855ZM105.768 8.15282V12.9809H91.7798V8.15282H105.768ZM94.9556 2.60048H101.398V24.2063C101.398 24.7998 101.488 25.2624 101.67 25.5944C101.851 25.9162 102.103 26.1426 102.426 26.2733C102.758 26.4041 103.142 26.4695 103.575 26.4695C103.877 26.4695 104.18 26.4443 104.482 26.394C104.785 26.3337 105.017 26.2884 105.178 26.2582L106.191 31.0411C105.869 31.1417 105.415 31.2573 104.83 31.388C104.246 31.5289 103.535 31.6144 102.698 31.6445C101.145 31.705 99.7845 31.4988 98.6151 31.026C97.4556 30.5533 96.5533 29.8189 95.908 28.8231C95.2628 27.8274 94.9453 26.5701 94.9556 25.0512V2.60048ZM114.033 31.7653C112.551 31.7653 111.23 31.5087 110.071 30.9959C108.911 30.4729 107.994 29.7033 107.318 28.6874C106.653 27.6615 106.32 26.384 106.32 24.8551C106.32 23.5676 106.557 22.4863 107.031 21.6112C107.505 20.7361 108.15 20.032 108.967 19.4989C109.783 18.9658 110.711 18.5634 111.749 18.2918C112.798 18.0203 113.897 17.8292 115.046 17.7185C116.397 17.5777 117.485 17.4469 118.312 17.3262C119.139 17.1955 119.739 17.0043 120.112 16.7529C120.485 16.5014 120.671 16.1293 120.671 15.6364V15.5459C120.671 14.5903 120.369 13.851 119.764 13.3279C119.169 12.8049 118.322 12.5434 117.223 12.5434C116.064 12.5434 115.142 12.7999 114.456 13.3129C113.77 13.8158 113.317 14.4495 113.095 15.2139L107.137 14.7311C107.439 13.3229 108.034 12.1058 108.921 11.0798C109.808 10.0438 110.953 9.24921 112.354 8.69598C113.766 8.1327 115.399 7.85105 117.254 7.85105C118.544 7.85105 119.779 8.00193 120.958 8.3037C122.148 8.60544 123.202 9.07318 124.119 9.70686C125.047 10.3405 125.777 11.1553 126.312 12.1511C126.846 13.1368 127.113 14.3187 127.113 15.6967V31.3278H121.004V28.114H120.822C120.449 28.8382 119.95 29.4769 119.325 30.0303C118.7 30.5735 117.949 31.0008 117.072 31.3127C116.195 31.6144 115.182 31.7653 114.033 31.7653ZM115.877 27.3294C116.825 27.3294 117.662 27.1433 118.388 26.7712C119.114 26.389 119.683 25.876 120.097 25.2323C120.51 24.5885 120.717 23.8593 120.717 23.0445V20.5852C120.515 20.716 120.238 20.8367 119.885 20.9473C119.542 21.0479 119.154 21.1434 118.72 21.234C118.287 21.3144 117.854 21.3899 117.42 21.4603C116.987 21.5206 116.593 21.576 116.241 21.6263C115.484 21.7369 114.824 21.9129 114.26 22.1543C113.695 22.3957 113.256 22.7227 112.944 23.1351C112.631 23.5374 112.475 24.0403 112.475 24.6438C112.475 25.5189 112.793 26.1878 113.428 26.6505C114.073 27.1032 114.889 27.3294 115.877 27.3294ZM140.051 31.7803C137.672 31.7803 135.625 31.2775 133.911 30.2715C132.208 29.2558 130.897 27.8476 129.98 26.047C129.072 24.2465 128.618 22.1745 128.618 19.8308C128.618 17.457 129.077 15.3749 129.995 13.5844C130.922 11.784 132.238 10.3808 133.941 9.37492C135.645 8.35902 137.672 7.85105 140.021 7.85105C142.047 7.85105 143.821 8.21819 145.344 8.95247C146.866 9.68675 148.071 10.7177 148.958 12.0455C149.845 13.3732 150.334 14.9323 150.425 16.7227H144.346C144.174 15.566 143.721 14.6356 142.985 13.9315C142.259 13.2173 141.306 12.8602 140.127 12.8602C139.128 12.8602 138.256 13.1318 137.51 13.675C136.774 14.2081 136.2 14.9876 135.787 16.0136C135.373 17.0396 135.166 18.2818 135.166 19.7403C135.166 21.2189 135.368 22.4762 135.771 23.5123C136.185 24.5483 136.764 25.3379 137.51 25.881C138.256 26.4242 139.128 26.6958 140.127 26.6958C140.862 26.6958 141.523 26.5449 142.108 26.2431C142.702 25.9414 143.191 25.5038 143.574 24.9305C143.968 24.3471 144.225 23.648 144.346 22.8333H150.425C150.324 24.6036 149.84 26.1627 148.973 27.5106C148.116 28.8484 146.931 29.8945 145.419 30.6488C143.907 31.4033 142.118 31.7803 140.051 31.7803ZM157.831 24.6589L157.846 16.949H158.784L166.224 8.15282H173.619L163.623 19.8006H162.096L157.831 24.6589ZM151.994 31.3278V0.427832H158.436V31.3278H151.994ZM166.511 31.3278L159.676 21.234L163.971 16.6925L174.057 31.3278H166.511ZM202.805 15.8778C202.805 19.2474 202.165 22.1141 200.885 24.4779C199.615 26.8416 197.88 28.647 195.683 29.8945C193.495 31.1317 191.035 31.7502 188.303 31.7502C185.551 31.7502 183.081 31.1266 180.893 29.8794C178.706 28.632 176.977 26.8265 175.706 24.4628C174.436 22.099 173.801 19.2373 173.801 15.8778C173.801 12.5082 174.436 9.64149 175.706 7.27771C176.977 4.91396 178.706 3.11346 180.893 1.87627C183.081 0.629002 185.551 0.00537109 188.303 0.00537109C191.035 0.00537109 193.495 0.629002 195.683 1.87627C197.88 3.11346 199.615 4.91396 200.885 7.27771C202.165 9.64149 202.805 12.5082 202.805 15.8778ZM196.167 15.8778C196.167 13.6951 195.839 11.8544 195.184 10.3556C194.538 8.85693 193.626 7.72031 192.447 6.94577C191.267 6.17126 189.886 5.78401 188.303 5.78401C186.72 5.78401 185.339 6.17126 184.16 6.94577C182.98 7.72031 182.063 8.85693 181.407 10.3556C180.762 11.8544 180.44 13.6951 180.44 15.8778C180.44 18.0605 180.762 19.9012 181.407 21.4C182.063 22.8987 182.98 24.0353 184.16 24.8098C185.339 25.5843 186.72 25.9716 188.303 25.9716C189.886 25.9716 191.267 25.5843 192.447 24.8098C193.626 24.0353 194.538 22.8987 195.184 21.4C195.839 19.9012 196.167 18.0605 196.167 15.8778ZM211.422 17.9297V31.3278H204.98V8.15282H211.119V12.2416H211.391C211.906 10.8938 212.768 9.82757 213.977 9.04298C215.187 8.24836 216.654 7.85105 218.378 7.85105C219.991 7.85105 221.397 8.2031 222.597 8.90721C223.797 9.61129 224.729 10.6172 225.395 11.9248C226.06 13.2223 226.393 14.7714 226.393 16.5718V31.3278H219.951V17.7185C219.96 16.3003 219.598 15.1938 218.862 14.3992C218.126 13.5945 217.112 13.1921 215.822 13.1921C214.955 13.1921 214.189 13.3782 213.524 13.7504C212.868 14.1226 212.354 14.6657 211.981 15.3799C211.618 16.084 211.432 16.9339 211.422 17.9297ZM239.5 31.7803C237.111 31.7803 235.054 31.2976 233.331 30.332C231.617 29.3564 230.296 27.9782 229.369 26.1979C228.441 24.4075 227.977 22.2901 227.977 19.8459C227.977 17.462 228.441 15.3698 229.369 13.5693C230.296 11.7689 231.602 10.3657 233.285 9.35984C234.979 8.35399 236.965 7.85105 239.243 7.85105C240.776 7.85105 242.202 8.0975 243.523 8.59036C244.854 9.07318 246.013 9.8024 247.001 10.7781C247.999 11.7538 248.775 12.9809 249.33 14.4595C249.884 15.9281 250.161 17.6481 250.161 19.6196V21.3849H230.548V17.4017H244.098C244.098 16.4763 243.896 15.6565 243.492 14.9424C243.089 14.2282 242.53 13.6699 241.814 13.2676C241.108 12.8552 240.287 12.649 239.349 12.649C238.371 12.649 237.504 12.8753 236.748 13.3279C236.002 13.7705 235.417 14.369 234.994 15.1234C234.571 15.8677 234.354 16.6976 234.344 17.6129V21.4C234.344 22.5466 234.555 23.5374 234.979 24.3722C235.412 25.2071 236.022 25.8509 236.809 26.3035C237.595 26.7561 238.527 26.9825 239.606 26.9825C240.322 26.9825 240.977 26.8819 241.572 26.6807C242.167 26.4795 242.676 26.1778 243.099 25.7754C243.523 25.3731 243.846 24.8802 244.067 24.2968L250.025 24.6891C249.723 26.1174 249.103 27.3646 248.165 28.4308C247.238 29.4871 246.038 30.3118 244.566 30.9053C243.104 31.4886 241.416 31.7803 239.5 31.7803Z" fill="#0A0A0A"/>
</g>
<defs>
<linearGradient id="paint0_linear_60_213" x1="35.936" y1="5.40795" x2="17.968" y2="5.40795" gradientUnits="userSpaceOnUse">
<stop stop-color="#00AF66"/>
<stop offset="1" stop-color="#285C4D"/>
</linearGradient>
<linearGradient id="paint1_linear_60_213" x1="17.968" y1="26.323" x2="35.936" y2="26.323" gradientUnits="userSpaceOnUse">
<stop stop-color="#00AF66"/>
<stop offset="1" stop-color="#285C4D"/>
</linearGradient>
<clipPath id="clip0_60_213">
<rect width="126" height="16" fill="white" transform="scale(2)"/>
</clipPath>
</defs>
</svg>
