<svg width="60" height="60" viewBox="0 0 60 60" fill="none" xmlns="http://www.w3.org/2000/svg">
<path d="M4.03784 41.338L0 25.0313H4.65905L6.95751 37.7971H7.54766L10.281 25.0313H15.6544L18.4809 37.7971H19.0711L21.3074 25.0313H25.8733L21.8044 41.338H15.6544L13.1075 28.6653H12.5794L10.1567 41.338H4.03784ZM40.6506 41.7728C39.7396 41.7728 38.932 41.5967 38.2279 41.2448C37.5239 40.872 36.9752 40.344 36.5817 39.6607C36.1883 38.9774 35.9916 38.1283 35.9916 37.1138C35.9916 36.2233 36.1572 35.4779 36.4886 34.8774C36.8405 34.2768 37.3479 33.7903 38.0105 33.4176C38.6731 33.0449 39.4911 32.7342 40.4643 32.4858C41.4375 32.2373 42.5453 32.0199 43.7877 31.8335C44.4503 31.7299 44.9888 31.6367 45.4029 31.554C45.8377 31.4503 46.1586 31.295 46.3657 31.0881C46.5728 30.8602 46.6763 30.5393 46.6763 30.1252C46.6763 29.5454 46.4692 29.0484 46.0551 28.6343C45.641 28.2201 44.9888 28.013 44.0983 28.013C43.4979 28.013 42.9388 28.1166 42.4211 28.3236C41.9241 28.5307 41.4893 28.8413 41.1165 29.2555C40.7646 29.6696 40.5057 30.1976 40.34 30.8396L36.3954 29.6282C36.6439 28.7792 36.9958 28.0441 37.4514 27.4229C37.9277 26.8017 38.4972 26.284 39.1598 25.8699C39.8223 25.435 40.5782 25.1141 41.4272 24.907C42.2761 24.6999 43.1976 24.5964 44.1915 24.5964C45.7859 24.5964 47.0801 24.8552 48.0741 25.3729C49.0887 25.8699 49.8445 26.6567 50.3415 27.7335C50.8384 28.7896 51.0869 30.1562 51.0869 31.8335V34.6289C51.0869 35.3536 51.0972 36.0888 51.118 36.8342C51.1593 37.5797 51.2008 38.3354 51.2422 39.1016C51.3043 39.8471 51.3665 40.5925 51.4286 41.338H47.4839C47.401 40.8202 47.3183 40.2301 47.2354 39.5675C47.1733 38.8842 47.1215 38.2009 47.0801 37.5175H46.521C46.2312 38.3044 45.817 39.0187 45.2786 39.6607C44.7403 40.3025 44.0776 40.8202 43.2908 41.2137C42.5246 41.5864 41.6446 41.7728 40.6506 41.7728ZM42.5453 38.5425C42.9388 38.5425 43.3321 38.47 43.7256 38.3251C44.1397 38.1801 44.5332 37.9834 44.9059 37.735C45.2994 37.4657 45.6514 37.1344 45.962 36.741C46.2933 36.3476 46.5624 35.9024 46.7695 35.4054L46.7074 32.7964L47.4218 32.9517C47.0491 33.2208 46.6142 33.4382 46.1173 33.6039C45.6203 33.7488 45.1026 33.8627 44.5642 33.9456C44.0465 34.0284 43.5289 34.1215 43.0112 34.2251C42.4935 34.3286 42.0276 34.4632 41.6135 34.6289C41.22 34.7945 40.8991 35.0223 40.6506 35.3123C40.4229 35.5814 40.309 35.9645 40.309 36.4615C40.309 37.1033 40.5161 37.6107 40.9302 37.9834C41.3443 38.3562 41.8827 38.5425 42.5453 38.5425ZM54.9993 41.338V25.0313H59.472V41.338H54.9993ZM57.2667 22.5775C56.397 22.5775 55.7241 22.4015 55.2478 22.0495C54.7923 21.6767 54.5644 21.1384 54.5644 20.4343C54.5644 19.7096 54.7923 19.1609 55.2478 18.7881C55.7241 18.4154 56.397 18.229 57.2667 18.229C58.1571 18.229 58.8301 18.4154 59.2856 18.7881C59.7619 19.1609 60 19.7096 60 20.4343C60 21.1177 59.7619 21.6457 59.2856 22.0184C58.8301 22.3911 58.1571 22.5775 57.2667 22.5775Z" fill="#222121"/>
<path d="M30.6826 41.2448C29.7094 41.2448 28.9743 41.0377 28.4773 40.6236C28.0011 40.2094 27.7629 39.5675 27.7629 38.6978C27.7629 37.8074 28.0011 37.1551 28.4773 36.741C28.9743 36.3268 29.7094 36.1198 30.6826 36.1198C31.6765 36.1198 32.4117 36.3268 32.8879 36.741C33.3849 37.1551 33.6333 37.8074 33.6333 38.6978C33.6333 40.3957 32.6497 41.2448 30.6826 41.2448ZM30.6826 30.4668C29.7094 30.4668 28.9743 30.2597 28.4773 29.8456C28.0011 29.4314 27.7629 28.7896 27.7629 27.9199C27.7629 27.0295 28.0011 26.3772 28.4773 25.9631C28.9743 25.5489 29.7094 25.3419 30.6826 25.3419C31.6765 25.3419 32.4117 25.5489 32.8879 25.9631C33.3849 26.3772 33.6333 27.0295 33.6333 27.9199C33.6333 29.6178 32.6497 30.4668 30.6826 30.4668Z" fill="#4D4EBA"/>
</svg>
